<svg xmlns="http://www.w3.org/2000/svg" width="24" height="24" viewBox="0 0 24 24">
  <g fill="none" fill-rule="evenodd">
    <rect width="24" height="24" fill="#FFF" fill-opacity=".01"/>
    <path fill="#A2CD3A" fill-rule="nonzero" d="M23.6384516,13.5027097 C23.4913548,13.7357419 23.2381935,13.8642581 22.9811613,13.8642581 C22.8394839,13.8642581 22.6978065,13.8247742 22.5692903,13.7458065 L21.3050323,12.9514839 C20.6609032,17.592 16.7295484,21.1772903 11.9783226,21.1772903 C11.5501935,21.1772903 11.204129,20.832 11.204129,20.4030968 C11.204129,19.9749677 11.5501935,19.6289032 11.9783226,19.6289032 C15.9298065,19.6289032 19.2023226,16.6529032 19.7659355,12.7912258 L18.3414194,13.3556129 C17.9450323,13.5127742 17.4936774,13.32 17.3357419,12.9205161 C17.1785806,12.5225806 17.3736774,12.0727742 17.7708387,11.9156129 L20.3496774,10.892129 C20.3659355,10.8851613 20.3852903,10.8898065 20.4023226,10.8843871 C20.4774194,10.8603871 20.5517419,10.8371613 20.6353548,10.8371613 C20.6500645,10.8371613 20.6609032,10.8449032 20.6763871,10.8456774 C20.7143226,10.8472258 20.7483871,10.8603871 20.7855484,10.8673548 C20.8621935,10.8828387 20.931871,10.9029677 20.9976774,10.9385806 C21.0139355,10.947871 21.0325161,10.9463226 21.048,10.9556129 L23.3945806,12.4335484 C23.7576774,12.6619355 23.8652903,13.1419355 23.6384516,13.5027097 Z M6.65729032,10.3935484 C6.8036129,10.796129 6.59767742,11.2405161 6.19587097,11.3868387 L3.59070968,12.3383226 C3.50477419,12.3700645 3.41341935,12.3863226 3.3243871,12.3863226 C3.23303226,12.3863226 3.14322581,12.3646452 3.05651613,12.3329032 C3.02864516,12.3220645 3.00387097,12.3096774 2.97677419,12.2949677 C2.94967742,12.2810323 2.91948387,12.2740645 2.89393548,12.2554839 L0.587612903,10.7132903 C0.232258065,10.4756129 0.136258065,9.99483871 0.374709677,9.63948387 C0.611612903,9.28258065 1.0923871,9.18967742 1.44774194,9.42658065 L2.65780645,10.2363871 C3.31896774,5.61367742 7.24103226,2.04851613 11.9783226,2.04851613 C12.4064516,2.04851613 12.7525161,2.39458065 12.7525161,2.82270968 C12.7525161,3.25083871 12.4064516,3.59690323 11.9783226,3.59690323 C8.01445161,3.59690323 4.73341935,6.59225806 4.18683871,10.4725161 L5.66245161,9.93290323 C6.06503226,9.78735484 6.51019355,9.99174194 6.65729032,10.3935484 Z"/>
  </g>
</svg>
