<svg xmlns="http://www.w3.org/2000/svg" width="120" height="120" viewBox="0 0 120 120">
  <g fill="#FFF" fill-rule="evenodd">
    <rect width="120" height="120" fill-opacity=".01"/>
    <path fill-rule="nonzero" d="M111.3,87.42 L93.75,69.93 L85.8,77.85 L79.44,71.49 C86.34,62.46 89.76,50.61 87.39,37.92 C84.27,21.18 70.83,7.68 54.09,4.53 C24.51,-1.05 -1.05,24.51 4.53,54.09 C7.68,70.8 21.21,84.24 37.92,87.39 C50.58,89.76 62.43,86.37 71.49,79.44 L77.85,85.8 L69.87,93.75 L87.45,111.33 C94.05,117.93 104.73,117.93 111.3,111.33 C117.9,104.7 117.9,94.02 111.3,87.42 Z M45.93,80.3246711 C26.9986833,80.3246711 11.5669938,64.8929816 11.5669938,45.9283351 C11.5669938,26.9636886 26.9986833,11.5653289 45.93,11.5653289 C64.8946465,11.5653289 80.2930062,26.9970184 80.2930062,45.9283351 C80.2930062,64.8596518 64.8946465,80.3246711 45.93,80.3246711 Z M106.364833,106.358945 C103.172155,109.551624 97.9676519,109.551624 94.7749735,106.358945 L80.7796711,92.3636429 L92.3695309,80.8175184 L106.364833,94.7690855 C109.557512,97.9617639 109.557512,103.166267 106.364833,106.358945 Z"/>
    <path d="M37.3828125,37.6796875 C37.3203122,37.0234342 37.4492171,36.2734417 37.7695312,35.4296875 C38.0898454,34.5859333 38.5703093,33.7343793 39.2109375,32.875 C39.8671908,31.9687455 40.8398373,31.1914095 42.1289062,30.5429688 C43.4179752,29.894528 44.8515546,29.5000007 46.4296875,29.359375 C46.6953138,29.3281248 47.0859349,29.3125 47.6015625,29.3125 C49.2421957,29.3125 50.7070248,29.609372 51.9960938,30.203125 C53.2851627,30.796878 54.3124962,31.6289009 55.078125,32.6992188 C55.8437538,33.7695366 56.2890619,34.999993 56.4140625,36.390625 C56.5703133,38.187509 55.5156363,40.1562393 53.25,42.296875 L51.1171875,44.2421875 L50.4375,44.828125 C49.6249959,45.5312535 48.9882836,46.1406224 48.5273438,46.65625 C48.0664039,47.1718776 47.6875015,47.8046838 47.390625,48.5546875 C47.0781234,49.3203163 46.921875,50.1874952 46.921875,51.15625 L46.9453125,51.9296875 C46.9453125,52.2109389 46.8125013,52.4296867 46.546875,52.5859375 C46.2812487,52.7421883 45.8906276,52.8203125 45.375,52.8203125 C44.6249962,52.8203125 44.25,52.515628 44.25,51.90625 C44.2343749,51.7499992 44.2265625,51.5156266 44.2265625,51.203125 C44.2265625,49.6874924 44.47656,48.328131 44.9765625,47.125 C45.476565,45.921869 46.1328084,44.9453162 46.9453125,44.1953125 C47.5859407,43.5859345 48.406245,42.8984413 49.40625,42.1328125 L49.8984375,41.734375 C50.7265666,41.0624966 51.3671852,40.5039085 51.8203125,40.0585938 C52.2734398,39.613279 52.6328112,39.1367213 52.8984375,38.6289062 C53.1640638,38.1210912 53.2734377,37.5703155 53.2265625,36.9765625 C53.1015619,35.476555 52.5312551,34.3046917 51.515625,33.4609375 C50.4999949,32.6171833 49.1484459,32.1953125 47.4609375,32.1953125 C47.2890616,32.1953125 47.000002,32.2109373 46.59375,32.2421875 C44.4374892,32.4296884 42.8164117,33.1640561 41.7304688,34.4453125 C40.6445258,35.7265689 40.0312507,37.3749899 39.890625,39.390625 C39.8749999,39.4531253 39.7500012,39.484375 39.515625,39.484375 C39.0624977,39.484375 38.6054711,39.3242204 38.1445312,39.0039062 C37.6835914,38.6835921 37.4296877,38.2421903 37.3828125,37.6796875 Z M45.65625,61.140625 C45.0312469,61.1562501 44.4921898,60.9414085 44.0390625,60.4960938 C43.5859352,60.050779 43.359375,59.5078157 43.359375,58.8671875 C43.359375,58.2265593 43.5859352,57.683596 44.0390625,57.2382812 C44.4921898,56.7929665 45.0312469,56.5703125 45.65625,56.5703125 C46.2968782,56.5703125 46.8398415,56.7929665 47.2851562,57.2382812 C47.730471,57.683596 47.953125,58.2265593 47.953125,58.8671875 C47.953125,59.5078157 47.7265648,60.050779 47.2734375,60.4960938 C46.8203102,60.9414085 46.2812531,61.1562501 45.65625,61.140625 Z"/>
  </g>
</svg>
