<svg xmlns="http://www.w3.org/2000/svg" width="16" height="16" viewBox="0 0 16 16">
  <g fill="none" fill-rule="evenodd">
    <rect width="16" height="16" fill="#FFF" fill-opacity=".01"/>
    <path fill="#758A9A" fill-rule="nonzero" d="M12.6755319,5.73723404 C12.9021277,5.5106383 13.0265957,5.2106383 13.0265957,4.89148936 C13.0265957,4.57234043 12.9021277,4.27234043 12.6755319,4.04574468 L10.9840426,2.35425532 C10.5308511,1.90106383 9.74255319,1.90106383 9.29255319,2.35425532 L3.14574468,8.50106383 L2.01914894,13.0106383 L6.53191489,11.8840426 L12.6755319,5.73723404 Z M4.53085106,8.80744681 L8.57765957,4.7606383 L10.2691489,6.45212766 L6.22234043,10.4989362 L4.53085106,8.80744681 Z M10.1382979,3.2 L11.8297872,4.89148936 L11.1148936,5.60638298 L9.42340426,3.91489362 L10.1382979,3.2 Z M4.0106383,9.97553191 L5.05425532,11.0191489 L3.66276596,11.3670213 L4.0106383,9.97553191 Z"/>
    <rect width="7.774" height="1.197" x="5.233" y="12.787" fill="#758A9A" fill-rule="nonzero"/>
  </g>
</svg>
