<svg xmlns="http://www.w3.org/2000/svg" width="24" height="24" viewBox="0 0 24 24">
  <g fill="none" fill-rule="evenodd">
    <rect width="24" height="24" fill="#FFF" fill-opacity=".01"/>
    <path fill="#758A9A" fill-rule="nonzero" d="M20.1489362,6.06414894 L19.1369362,6.06414894 L16.1117021,6.06414894 L16.1117021,4.04553191 C16.1117021,2.93125532 15.2073617,2.02691489 14.0930851,2.02691489 L10.0558511,2.02691489 C8.94157447,2.02691489 8.03723404,2.93125532 8.03723404,4.04553191 L8.03723404,6.06414894 L5.00661702,6.06414894 L4,6.06414894 L4,8.08276596 L5.00661702,8.08276596 L5.00661702,19.1878511 C5.00661702,20.8565745 6.36312766,22.2184681 8.03723404,22.2184681 L16.1117021,22.2184681 C17.7804255,22.2184681 19.1423191,20.8619574 19.1423191,19.1878511 L19.1423191,8.08276596 L20.1489362,8.08276596 L20.1489362,6.06414894 Z M10.0558511,4.04553191 L14.0930851,4.04553191 L14.0930851,6.06414894 L10.0558511,6.06414894 L10.0558511,4.04553191 Z M17.1237021,19.1878511 C17.1237021,19.7422979 16.6715319,20.1998511 16.1117021,20.1998511 L8.03723404,20.1998511 C7.48278723,20.1998511 7.02523404,19.7476809 7.02523404,19.1878511 L7.02523404,8.08276596 L8.03723404,8.08276596 L16.1117021,8.08276596 L17.1237021,8.08276596 L17.1237021,19.1878511 Z"/>
    <rect width="2.019" height="8.074" x="9.049" y="10.101" fill="#758A9A" fill-rule="nonzero"/>
    <rect width="2.019" height="8.074" x="13.086" y="10.101" fill="#758A9A" fill-rule="nonzero"/>
  </g>
</svg>
