<svg id="svg" version="1.1" width="400" height="127.34375" viewBox="0 0 400 127.34375" xmlns="http://www.w3.org/2000/svg" xmlns:xlink="http://www.w3.org/1999/xlink" style="display: block;"><g id="svgg"><path id="path0" d="M69.667 28.324 C 68.752 28.614,65.473 30.336,63.722 31.446 C 61.792 32.671,61.764 32.820,61.908 41.292 C 61.991 46.199,61.972 48.167,61.843 48.167 C 61.744 48.167,60.819 47.785,59.789 47.318 C 57.180 46.136,55.256 45.500,54.288 45.500 C 52.196 45.500,46.870 48.056,38.170 53.237 C 33.405 56.075,32.481 56.887,31.264 59.307 C 30.237 61.351,30.277 60.758,30.310 73.250 L 30.334 82.583 30.825 83.989 C 31.095 84.763,31.470 85.603,31.658 85.858 C 31.846 86.112,32.000 86.381,32.000 86.456 C 32.000 86.532,32.150 86.701,32.333 86.833 C 32.517 86.965,32.667 87.154,32.667 87.251 C 32.667 87.349,33.023 87.767,33.458 88.180 C 34.229 88.911,34.646 89.205,37.417 90.971 C 38.150 91.438,38.841 91.898,38.951 91.994 C 39.062 92.089,39.190 92.167,39.236 92.167 C 39.282 92.167,40.152 92.693,41.170 93.335 C 42.188 93.978,43.260 94.616,43.552 94.753 C 43.844 94.891,44.533 95.266,45.083 95.588 C 46.008 96.129,46.920 96.586,49.607 97.851 C 50.170 98.116,50.695 98.334,50.774 98.334 C 50.852 98.335,51.120 98.442,51.369 98.571 C 53.725 99.801,59.054 98.489,63.833 95.503 C 63.971 95.417,64.646 95.034,65.333 94.653 C 67.087 93.679,67.550 93.411,68.319 92.926 C 68.690 92.692,69.034 92.500,69.083 92.500 C 69.132 92.500,69.903 92.025,70.795 91.444 C 71.687 90.864,72.996 90.032,73.704 89.597 C 75.894 88.249,77.208 86.559,78.198 83.817 L 78.583 82.750 78.630 58.667 C 78.661 42.557,78.619 34.317,78.504 33.779 C 78.201 32.367,77.760 31.964,74.417 30.042 C 72.079 28.698,70.401 28.091,69.667 28.324 M195.459 51.014 C 190.610 51.724,186.901 55.358,186.331 59.956 C 185.654 65.412,188.967 69.513,195.750 71.612 C 202.152 73.594,204.742 76.383,203.270 79.712 C 201.619 83.449,194.345 83.517,190.105 79.835 C 188.722 78.634,188.434 78.718,186.613 80.856 C 184.859 82.915,184.821 83.118,185.987 84.222 C 190.412 88.411,198.796 89.628,204.484 86.906 C 210.789 83.889,212.389 75.398,207.527 70.763 C 205.671 68.995,204.615 68.454,198.583 66.189 C 194.086 64.499,192.655 63.121,192.876 60.688 C 193.252 56.536,197.801 55.432,203.695 58.063 C 206.265 59.210,206.264 59.210,207.693 56.542 C 209.063 53.982,209.053 53.948,206.590 52.742 C 203.357 51.160,199.041 50.490,195.459 51.014 M95.417 51.561 C 95.022 51.852,94.781 86.059,95.164 87.375 L 95.347 88.000 102.930 88.000 C 111.431 88.000,112.157 87.929,114.210 86.895 C 116.331 85.827,117.795 84.084,118.719 81.529 L 119.242 80.083 119.295 70.182 C 119.355 59.018,119.357 59.040,118.136 56.507 C 116.988 54.123,115.203 52.680,112.332 51.813 C 110.706 51.322,96.038 51.103,95.417 51.561 M132.854 51.625 C 132.332 52.060,123.509 87.359,123.827 87.742 C 124.005 87.957,124.525 88.000,126.937 88.000 C 130.424 88.000,130.314 88.061,130.730 85.903 C 131.094 84.020,131.806 81.197,132.017 80.802 C 132.167 80.521,132.516 80.500,137.002 80.500 L 141.826 80.500 142.079 80.886 C 142.218 81.099,142.639 82.655,143.014 84.345 C 143.899 88.329,143.529 88.017,147.321 87.962 L 150.417 87.917 150.466 87.409 C 150.512 86.940,150.248 85.831,148.328 78.417 C 147.949 76.950,147.311 74.475,146.912 72.917 C 144.983 65.382,144.633 64.020,143.830 60.917 C 143.356 59.083,142.636 56.277,142.230 54.680 C 141.825 53.082,141.410 51.676,141.309 51.555 C 140.995 51.176,133.316 51.240,132.854 51.625 M155.595 51.595 C 155.274 51.916,155.187 87.082,155.506 87.678 C 155.721 88.079,161.528 88.185,161.782 87.792 C 161.856 87.677,161.957 84.808,162.005 81.417 C 162.106 74.444,162.156 74.150,163.496 72.628 C 165.559 70.284,170.140 70.287,171.942 72.632 C 173.003 74.014,173.171 74.934,173.562 81.495 C 173.823 85.870,173.977 87.523,174.145 87.725 C 174.342 87.961,174.782 88.000,177.267 88.000 L 180.160 88.000 180.269 87.567 C 180.329 87.329,180.294 86.035,180.193 84.692 C 180.091 83.349,179.929 80.825,179.833 79.083 C 179.737 77.342,179.585 75.227,179.496 74.385 C 178.963 69.356,176.040 66.503,170.958 66.052 C 170.340 65.997,169.833 65.901,169.833 65.839 C 169.833 65.642,176.252 57.513,179.546 53.538 C 181.313 51.406,181.335 51.427,177.268 51.371 C 173.533 51.320,173.553 51.315,172.623 52.573 C 172.326 52.974,171.033 54.591,169.750 56.167 C 168.467 57.742,167.229 59.281,167.000 59.586 C 165.108 62.102,162.605 65.000,162.324 65.000 C 162.009 65.000,162.000 64.828,162.000 58.489 C 162.000 54.320,161.938 51.862,161.827 51.656 C 161.589 51.210,156.034 51.156,155.595 51.595 M222.422 51.661 C 222.168 51.942,220.317 58.985,217.756 69.417 C 215.810 77.343,214.198 83.788,213.803 85.228 C 213.605 85.949,213.437 86.849,213.430 87.228 L 213.417 87.917 216.250 87.964 C 220.189 88.030,219.936 88.213,220.584 84.833 C 220.932 83.021,221.487 80.976,221.705 80.708 C 221.956 80.400,231.383 80.408,231.640 80.718 C 231.819 80.934,232.304 82.778,232.990 85.856 C 233.493 88.108,233.319 88.017,237.017 87.962 L 240.083 87.917 240.134 87.481 C 240.179 87.088,239.880 85.843,237.892 78.167 C 237.572 76.929,236.908 74.342,236.417 72.417 C 235.926 70.492,235.136 67.417,234.662 65.583 C 234.188 63.750,233.513 61.125,233.161 59.750 C 231.453 53.058,231.161 51.968,230.998 51.663 C 230.725 51.153,222.883 51.152,222.422 51.661 M110.258 57.694 C 112.702 58.984,112.698 58.965,112.635 70.000 C 112.585 78.669,112.574 78.937,112.232 79.667 C 111.770 80.651,110.880 81.538,110.069 81.823 C 109.060 82.177,102.530 82.273,102.083 81.941 C 101.617 81.595,101.465 58.249,101.925 57.548 L 102.189 57.144 105.803 57.197 C 109.346 57.249,109.433 57.259,110.258 57.694 M137.243 59.208 C 137.548 60.581,138.176 63.579,138.335 64.417 C 138.515 65.368,138.718 66.264,140.080 72.098 C 140.403 73.481,140.667 74.700,140.667 74.807 C 140.667 74.947,139.687 75.000,137.066 75.000 L 133.465 75.000 133.544 74.375 C 133.588 74.031,133.903 72.475,134.244 70.917 C 134.861 68.105,135.648 64.361,136.331 61.000 C 136.807 58.654,137.025 58.225,137.243 59.208 M227.515 62.268 C 228.218 65.608,228.847 68.410,229.767 72.308 C 230.078 73.624,230.291 74.768,230.240 74.850 C 230.189 74.933,228.576 75.000,226.657 75.000 L 223.167 75.000 223.167 74.482 C 223.167 74.198,223.276 73.541,223.410 73.024 C 223.666 72.033,224.130 69.863,225.520 63.167 C 226.651 57.713,226.565 57.752,227.515 62.268 M56.583 65.419 C 59.431 66.828,60.726 67.733,61.237 68.673 L 61.697 69.518 61.637 72.717 C 61.553 77.239,61.472 77.383,57.865 79.389 C 54.712 81.144,53.130 81.226,50.993 79.745 C 50.666 79.519,50.344 79.333,50.277 79.333 C 49.933 79.333,47.694 77.596,47.333 77.048 C 46.929 76.436,46.915 76.317,46.865 73.083 C 46.789 68.272,46.855 68.135,50.071 66.333 C 53.809 64.239,54.112 64.196,56.583 65.419 M95.101 93.764 C 95.046 93.909,95.000 94.396,95.000 94.847 L 95.000 95.667 100.833 95.667 L 106.667 95.667 106.667 94.684 C 106.667 93.943,106.602 93.678,106.403 93.601 C 105.728 93.342,95.205 93.493,95.101 93.764 M109.708 93.609 C 109.575 93.664,109.500 94.048,109.500 94.681 L 109.500 95.667 117.750 95.667 L 126.000 95.667 126.000 94.684 C 126.000 93.970,125.933 93.676,125.753 93.607 C 125.445 93.490,109.995 93.491,109.708 93.609 M128.958 93.593 C 128.890 93.664,128.833 94.160,128.833 94.694 L 128.833 95.667 162.958 95.632 C 181.727 95.612,196.315 95.572,195.375 95.542 L 193.667 95.488 193.667 94.994 C 193.667 94.392,192.178 94.193,192.156 94.792 C 192.149 95.000,192.099 94.968,191.983 94.678 C 191.733 94.052,191.896 93.827,192.479 93.994 C 192.752 94.072,193.018 94.093,193.071 94.040 C 193.124 93.988,193.167 94.046,193.167 94.171 C 193.167 94.334,193.225 94.320,193.375 94.119 C 193.540 93.899,193.931 93.830,195.250 93.789 C 196.167 93.760,186.454 93.719,173.667 93.698 C 160.879 93.677,145.617 93.616,139.750 93.562 C 133.883 93.507,129.027 93.521,128.958 93.593 " stroke="none" fill="#097fcb" fill-rule="evenodd"></path><path id="path1" d="M0.000 63.667 L 0.000 127.333 200.000 127.333 L 400.000 127.333 400.000 63.667 L 400.000 0.000 200.000 0.000 L 0.000 0.000 0.000 63.667 M72.083 28.519 C 73.433 29.183,75.735 30.349,75.939 30.471 C 77.019 31.115,78.058 31.970,78.369 32.471 L 78.750 33.083 78.794 57.667 C 78.824 74.366,78.783 82.517,78.664 83.083 C 78.248 85.064,76.547 88.036,75.370 88.841 C 75.041 89.066,74.468 89.475,74.098 89.750 C 73.727 90.025,73.109 90.438,72.724 90.667 C 71.795 91.219,69.802 92.470,68.941 93.041 C 68.561 93.293,67.987 93.620,67.667 93.768 C 67.346 93.916,67.045 94.098,66.998 94.173 C 66.907 94.318,65.513 95.073,62.167 96.792 C 54.857 100.547,53.104 100.419,44.083 95.471 C 43.258 95.018,42.321 94.489,42.000 94.295 C 41.679 94.101,41.009 93.731,40.511 93.471 C 40.013 93.212,39.669 93.000,39.747 93.000 C 39.955 93.000,37.615 91.508,37.401 91.504 C 37.300 91.502,37.075 91.342,36.901 91.149 C 36.726 90.955,36.233 90.620,35.805 90.402 C 34.941 89.964,32.838 88.278,32.480 87.735 C 32.353 87.544,31.858 86.796,31.378 86.073 C 29.956 83.931,29.977 84.154,30.034 71.917 C 30.083 61.423,30.084 61.416,30.463 60.500 C 31.493 58.012,32.732 56.332,34.308 55.285 C 35.986 54.170,37.100 53.500,37.276 53.500 C 37.384 53.500,37.497 53.436,37.528 53.357 C 37.558 53.278,38.146 52.891,38.833 52.498 C 39.521 52.104,40.358 51.625,40.694 51.433 C 41.029 51.241,42.079 50.637,43.027 50.091 C 49.030 46.633,53.595 44.846,55.207 45.322 C 57.227 45.920,58.116 46.221,58.422 46.414 C 59.108 46.845,61.328 47.690,61.498 47.584 C 61.618 47.510,61.670 45.208,61.661 40.414 C 61.650 34.529,61.689 33.275,61.891 32.885 C 62.229 32.236,63.262 31.237,63.846 30.995 C 64.114 30.884,64.333 30.727,64.333 30.646 C 64.333 30.566,64.411 30.500,64.505 30.500 C 64.600 30.500,65.218 30.191,65.880 29.813 C 69.125 27.962,70.408 27.694,72.083 28.519 M203.250 51.236 C 206.209 51.981,209.000 53.528,209.000 54.422 C 209.000 54.612,208.154 56.320,207.278 57.899 C 206.524 59.258,205.911 59.311,203.396 58.237 C 197.683 55.797,193.406 56.810,193.045 60.689 C 192.909 62.150,194.488 64.500,195.605 64.500 C 195.731 64.500,195.833 64.560,195.833 64.633 C 195.833 64.780,197.235 65.500,197.521 65.500 C 197.619 65.500,197.936 65.609,198.225 65.743 C 198.729 65.977,199.181 66.151,202.333 67.329 C 204.086 67.985,204.014 67.954,204.415 68.207 C 204.597 68.322,205.253 68.734,205.873 69.122 C 206.992 69.822,208.831 71.458,208.836 71.759 C 208.838 71.846,209.064 72.248,209.338 72.653 C 212.392 77.160,209.809 84.947,204.512 87.203 C 204.093 87.381,203.525 87.628,203.250 87.750 C 199.112 89.597,191.647 88.482,186.769 85.289 C 185.206 84.265,184.522 82.928,185.164 82.151 C 188.167 78.510,188.695 78.180,189.827 79.232 C 190.397 79.762,192.000 80.863,192.000 80.725 C 192.000 80.665,192.131 80.730,192.292 80.870 C 193.800 82.189,198.791 82.721,200.728 81.770 C 204.070 80.129,204.346 76.647,201.310 74.413 C 200.754 74.003,200.220 73.717,200.124 73.777 C 200.021 73.840,199.998 73.805,200.067 73.692 C 200.133 73.587,200.102 73.500,200.000 73.500 C 199.897 73.500,199.421 73.315,198.942 73.088 C 198.462 72.861,197.473 72.485,196.744 72.251 C 196.014 72.017,195.267 71.755,195.083 71.668 C 194.900 71.580,194.375 71.364,193.917 71.187 C 190.000 69.672,187.558 67.495,186.561 64.629 C 185.058 60.307,186.881 54.769,190.483 52.714 C 190.905 52.474,191.362 52.183,191.500 52.068 C 191.785 51.829,194.048 51.045,195.069 50.830 C 196.600 50.509,201.283 50.741,203.250 51.236 M106.917 51.226 C 114.645 51.331,117.131 52.719,119.053 58.000 L 119.568 59.417 119.626 68.583 C 119.684 77.728,119.624 79.154,119.099 81.083 C 118.029 85.010,115.061 87.580,110.932 88.154 C 108.734 88.460,95.660 88.393,95.204 88.074 L 94.833 87.814 94.833 69.754 L 94.833 51.694 95.253 51.389 C 95.709 51.056,95.077 51.065,106.917 51.226 M141.397 51.279 C 141.534 51.356,141.722 51.718,141.813 52.084 C 141.904 52.450,142.208 53.688,142.488 54.833 C 142.768 55.979,143.108 57.254,143.244 57.667 C 143.380 58.079,143.674 59.167,143.896 60.083 C 145.006 64.653,145.343 65.979,145.574 66.679 C 145.713 67.098,145.933 67.923,146.063 68.512 C 146.352 69.818,147.602 74.640,147.754 75.034 C 147.814 75.190,148.034 76.053,148.242 76.951 C 148.451 77.849,149.119 80.517,149.728 82.880 C 150.935 87.573,150.954 87.689,150.571 88.071 C 150.142 88.501,144.290 88.456,143.853 88.020 C 143.558 87.725,142.817 84.998,142.321 82.378 C 141.994 80.649,142.299 80.756,137.555 80.706 C 131.650 80.643,132.164 80.340,131.327 84.372 C 130.446 88.618,130.753 88.333,127.047 88.333 C 123.812 88.333,123.500 88.256,123.500 87.456 C 123.500 87.017,124.585 82.376,125.768 77.750 C 125.909 77.200,126.731 73.900,127.594 70.417 C 128.458 66.933,129.239 63.858,129.328 63.583 C 129.418 63.308,129.677 62.296,129.904 61.333 C 130.131 60.371,130.625 58.383,131.002 56.917 C 131.379 55.450,131.756 53.950,131.841 53.583 C 132.170 52.160,132.306 51.638,132.360 51.592 C 132.883 51.145,133.496 51.085,137.231 51.111 C 139.385 51.127,141.260 51.202,141.397 51.279 M161.875 51.251 C 162.146 51.361,162.167 51.837,162.167 57.925 C 162.167 64.688,162.212 65.136,162.815 64.376 C 162.962 64.190,163.556 63.448,164.133 62.727 C 164.710 62.006,165.497 61.013,165.883 60.520 C 166.268 60.027,166.696 59.499,166.833 59.345 C 167.032 59.124,169.475 56.120,170.829 54.433 C 170.969 54.259,171.196 53.994,171.333 53.844 C 171.471 53.695,171.790 53.271,172.042 52.902 C 172.294 52.534,172.755 51.984,173.068 51.682 L 173.635 51.132 177.067 51.129 C 181.433 51.124,181.813 51.377,180.167 53.186 C 180.029 53.337,179.467 54.034,178.917 54.736 C 178.367 55.438,177.429 56.599,176.833 57.317 C 176.237 58.036,175.450 59.017,175.083 59.499 C 174.445 60.338,173.644 61.331,171.259 64.245 C 169.994 65.791,169.984 65.761,171.856 65.993 C 177.337 66.672,179.381 69.401,179.914 76.750 C 180.205 80.760,180.491 85.444,180.526 86.784 C 180.569 88.378,180.636 88.348,177.108 88.295 L 174.096 88.250 173.890 87.833 C 173.777 87.604,173.604 86.217,173.506 84.750 C 173.408 83.283,173.223 80.481,173.095 78.523 C 172.963 76.500,172.784 74.884,172.681 74.781 C 172.582 74.682,172.500 74.483,172.500 74.339 C 172.500 73.904,171.842 72.819,171.302 72.365 C 168.548 70.048,164.317 70.994,162.734 74.281 L 162.268 75.250 162.203 81.583 C 162.127 89.174,162.567 88.333,158.667 88.333 C 156.580 88.333,155.649 88.273,155.448 88.125 C 155.102 87.871,154.993 51.774,155.337 51.429 C 155.631 51.134,161.207 50.982,161.875 51.251 M231.101 51.368 C 231.307 51.579,231.568 52.490,232.430 56.000 C 232.667 56.962,232.925 57.900,233.004 58.083 C 233.083 58.267,233.346 59.317,233.589 60.417 C 233.832 61.517,234.099 62.567,234.182 62.750 C 234.319 63.053,234.615 64.205,235.747 68.833 C 236.401 71.508,237.499 75.710,237.751 76.500 C 237.882 76.912,238.109 77.840,238.255 78.561 C 238.402 79.282,238.585 79.995,238.662 80.145 C 238.740 80.294,239.006 81.317,239.255 82.417 C 239.503 83.517,239.839 84.829,240.002 85.333 C 240.947 88.254,240.831 88.367,236.916 88.341 C 233.332 88.318,233.339 88.321,232.929 86.722 C 232.198 83.873,231.967 82.865,231.886 82.167 C 231.713 80.656,231.749 80.667,226.667 80.667 C 221.482 80.667,221.685 80.597,221.345 82.500 C 221.171 83.478,220.884 84.761,220.332 87.042 C 220.033 88.275,219.866 88.333,216.643 88.333 C 212.936 88.333,212.799 88.254,213.268 86.393 C 213.403 85.856,213.700 84.630,213.928 83.668 C 214.156 82.706,214.454 81.543,214.591 81.084 C 214.842 80.243,215.505 77.558,216.258 74.333 C 216.483 73.371,216.780 72.208,216.919 71.750 C 217.057 71.292,217.401 69.979,217.682 68.833 C 218.161 66.880,218.640 64.940,219.575 61.167 C 219.791 60.296,220.192 58.712,220.467 57.647 C 220.741 56.582,221.065 55.176,221.186 54.522 C 221.307 53.868,221.456 53.333,221.518 53.333 C 221.579 53.333,221.679 53.052,221.740 52.708 C 221.929 51.645,222.017 51.477,222.492 51.277 C 223.167 50.993,230.813 51.073,231.101 51.368 M102.292 57.502 C 102.018 57.672,102.000 58.430,102.000 69.588 L 102.000 81.492 102.411 81.762 C 103.176 82.263,109.007 82.039,110.083 81.466 C 112.478 80.193,112.500 80.088,112.500 69.738 C 112.500 59.299,112.466 59.125,110.234 57.992 L 109.140 57.437 105.862 57.378 C 103.690 57.340,102.485 57.382,102.292 57.502 M136.696 60.459 C 136.582 60.986,136.269 62.579,135.999 64.000 C 135.729 65.421,135.399 66.996,135.266 67.500 C 135.133 68.004,134.896 69.054,134.739 69.833 C 134.582 70.612,134.317 71.813,134.150 72.500 C 133.983 73.188,133.824 73.975,133.798 74.250 L 133.750 74.750 137.042 74.795 C 139.677 74.831,140.333 74.797,140.333 74.621 C 140.333 74.365,139.715 71.489,139.587 71.148 C 139.539 71.021,139.277 69.867,139.003 68.583 C 138.730 67.300,138.367 65.612,138.195 64.833 C 138.023 64.054,137.711 62.592,137.500 61.583 C 137.034 59.349,136.958 59.242,136.696 60.459 M226.425 60.095 C 226.369 60.455,226.255 60.975,226.172 61.250 C 226.088 61.525,225.864 62.612,225.673 63.667 C 225.482 64.721,225.251 65.883,225.160 66.250 C 225.070 66.617,224.774 67.967,224.504 69.250 C 224.234 70.533,223.860 72.288,223.673 73.150 C 223.486 74.012,223.333 74.743,223.333 74.775 C 223.333 74.807,224.833 74.833,226.667 74.833 C 229.222 74.833,230.000 74.785,230.000 74.625 C 230.000 74.286,229.492 71.956,229.379 71.772 C 229.276 71.606,228.861 69.716,227.835 64.750 C 227.551 63.375,227.209 61.868,227.076 61.402 C 226.942 60.936,226.832 60.411,226.831 60.235 C 226.825 59.530,226.528 59.427,226.425 60.095 M52.687 65.263 C 52.020 65.576,51.437 65.833,51.392 65.833 C 51.347 65.833,51.208 65.927,51.083 66.042 C 50.958 66.156,50.383 66.512,49.804 66.833 C 48.445 67.587,47.257 68.757,47.111 69.485 C 46.874 70.670,46.986 75.624,47.265 76.321 C 47.719 77.458,52.690 80.667,53.996 80.667 C 54.434 80.667,56.746 79.732,57.359 79.307 C 57.602 79.138,57.848 79.000,57.904 79.000 C 58.177 79.000,60.167 77.584,60.167 77.390 C 60.167 77.267,60.259 77.185,60.372 77.208 C 61.267 77.390,61.808 69.990,61.000 68.621 C 60.664 68.051,58.472 66.559,57.535 66.261 C 57.332 66.197,57.167 66.079,57.167 66.000 C 57.167 65.921,57.009 65.806,56.817 65.745 C 56.624 65.684,56.043 65.439,55.525 65.202 C 54.232 64.609,54.069 64.612,52.687 65.263 M106.802 94.324 C 106.830 94.824,106.809 95.406,106.756 95.618 L 106.659 96.004 100.788 95.960 L 94.917 95.917 94.833 94.790 C 94.787 94.171,94.775 93.588,94.806 93.496 C 94.843 93.388,96.938 93.344,100.806 93.373 L 106.750 93.417 106.802 94.324 M126.135 94.324 C 126.163 94.824,126.143 95.405,126.090 95.616 L 125.994 96.000 117.663 96.000 L 109.333 96.000 109.333 94.665 L 109.333 93.330 117.708 93.373 L 126.083 93.417 126.135 94.324 M338.964 93.605 C 341.648 93.664,343.807 93.749,343.761 93.794 C 343.495 94.061,344.062 94.500,344.673 94.500 C 345.310 94.500,345.333 94.519,345.333 95.056 L 345.333 95.612 331.875 95.723 C 300.260 95.983,128.809 96.063,128.653 95.818 C 128.473 95.533,128.450 93.608,128.625 93.425 C 128.770 93.273,331.682 93.447,338.964 93.605 " stroke="none" fill="#fbfbfb" fill-rule="evenodd"></path><path id="path2" d="M78.748 57.833 C 78.748 70.804,78.767 76.110,78.792 69.625 C 78.816 63.140,78.816 52.527,78.792 46.042 C 78.767 39.556,78.748 44.862,78.748 57.833 M61.740 43.250 C 61.740 45.908,61.763 46.972,61.791 45.615 C 61.819 44.257,61.819 42.082,61.791 40.781 C 61.763 39.481,61.740 40.592,61.740 43.250 M53.960 45.451 C 54.168 45.491,54.468 45.490,54.627 45.448 C 54.786 45.406,54.617 45.374,54.250 45.375 C 53.883 45.377,53.753 45.411,53.960 45.451 M197.208 50.788 C 197.552 50.824,198.115 50.824,198.458 50.788 C 198.802 50.752,198.521 50.723,197.833 50.723 C 197.146 50.723,196.865 50.752,197.208 50.788 M99.125 51.291 C 101.073 51.318,104.260 51.318,106.208 51.291 C 108.156 51.265,106.563 51.243,102.667 51.243 C 98.771 51.243,97.177 51.265,99.125 51.291 M135.135 51.291 C 136.263 51.320,138.063 51.320,139.135 51.291 C 140.206 51.262,139.283 51.238,137.083 51.239 C 134.883 51.239,134.006 51.262,135.135 51.291 M157.208 51.291 C 158.010 51.321,159.323 51.321,160.125 51.291 C 160.927 51.260,160.271 51.235,158.667 51.235 C 157.063 51.235,156.406 51.260,157.208 51.291 M175.467 51.291 C 176.412 51.321,177.912 51.321,178.801 51.291 C 179.689 51.261,178.917 51.237,177.083 51.237 C 175.250 51.237,174.523 51.261,175.467 51.291 M224.801 51.291 C 225.929 51.320,227.729 51.320,228.801 51.291 C 229.873 51.262,228.950 51.238,226.750 51.239 C 224.550 51.239,223.673 51.262,224.801 51.291 M94.937 51.923 C 94.880 52.072,94.851 60.119,94.874 69.805 L 94.914 87.417 94.999 69.583 C 95.089 50.539,95.092 51.519,94.937 51.923 M155.247 69.750 C 155.247 79.650,155.267 83.675,155.292 78.696 C 155.316 73.716,155.316 65.616,155.292 60.696 C 155.267 55.775,155.247 59.850,155.247 69.750 M162.076 58.167 C 162.076 61.696,162.098 63.140,162.125 61.375 C 162.152 59.610,162.152 56.723,162.125 54.958 C 162.098 53.194,162.076 54.637,162.076 58.167 M188.994 54.125 L 188.083 55.083 189.042 54.172 C 189.932 53.326,190.076 53.167,189.953 53.167 C 189.927 53.167,189.495 53.598,188.994 54.125 M116.417 54.000 C 116.775 54.367,117.105 54.667,117.151 54.667 C 117.197 54.667,116.941 54.367,116.583 54.000 C 116.225 53.633,115.895 53.333,115.849 53.333 C 115.803 53.333,116.059 53.633,116.417 54.000 M32.573 57.042 L 32.083 57.583 32.625 57.094 C 32.923 56.825,33.167 56.581,33.167 56.552 C 33.167 56.423,33.029 56.537,32.573 57.042 M168.733 57.208 C 168.003 58.050,167.786 58.333,167.871 58.333 C 167.920 58.333,168.236 57.996,168.574 57.583 C 169.200 56.819,169.324 56.526,168.733 57.208 M103.884 57.291 C 104.782 57.321,106.207 57.321,107.050 57.291 C 107.893 57.261,107.158 57.236,105.417 57.236 C 103.675 57.236,102.985 57.261,103.884 57.291 M119.372 61.000 C 119.372 61.321,119.406 61.452,119.448 61.292 C 119.490 61.131,119.490 60.869,119.448 60.708 C 119.406 60.548,119.372 60.679,119.372 61.000 M193.485 63.139 C 193.575 63.307,193.779 63.550,193.939 63.680 C 194.119 63.827,194.079 63.710,193.834 63.375 C 193.396 62.777,193.232 62.666,193.485 63.139 M30.042 63.750 C 30.044 64.117,30.078 64.247,30.118 64.040 C 30.158 63.832,30.156 63.532,30.115 63.373 C 30.073 63.214,30.040 63.383,30.042 63.750 M30.077 73.000 C 30.077 77.721,30.099 79.652,30.125 77.292 C 30.151 74.931,30.151 71.069,30.125 68.708 C 30.099 66.348,30.077 68.279,30.077 73.000 M196.500 65.333 C 196.821 65.509,197.196 65.654,197.333 65.656 C 197.471 65.658,197.256 65.511,196.857 65.330 C 195.938 64.913,195.735 64.915,196.500 65.333 M177.000 68.417 C 177.311 68.737,177.603 69.000,177.649 69.000 C 177.695 69.000,177.478 68.737,177.167 68.417 C 176.856 68.096,176.564 67.833,176.518 67.833 C 176.472 67.833,176.689 68.096,177.000 68.417 M46.904 72.667 C 46.904 74.546,46.928 75.315,46.958 74.375 C 46.987 73.435,46.987 71.898,46.958 70.958 C 46.928 70.019,46.904 70.787,46.904 72.667 M207.667 70.750 C 207.978 71.071,208.270 71.333,208.315 71.333 C 208.361 71.333,208.144 71.071,207.833 70.750 C 207.522 70.429,207.230 70.167,207.185 70.167 C 207.139 70.167,207.356 70.429,207.667 70.750 M164.083 72.098 L 163.583 72.528 164.125 72.169 C 164.423 71.972,164.667 71.778,164.667 71.739 C 164.667 71.614,164.596 71.657,164.083 72.098 M173.042 76.250 C 173.044 76.617,173.078 76.747,173.118 76.540 C 173.158 76.332,173.156 76.032,173.115 75.873 C 173.073 75.714,173.040 75.883,173.042 76.250 M179.705 77.000 C 179.705 77.321,179.740 77.452,179.782 77.292 C 179.823 77.131,179.823 76.869,179.782 76.708 C 179.740 76.548,179.705 76.679,179.705 77.000 M210.387 77.667 C 210.387 78.262,210.417 78.506,210.454 78.208 C 210.491 77.910,210.491 77.423,210.454 77.125 C 210.417 76.827,210.387 77.071,210.387 77.667 M60.406 77.542 L 59.917 78.083 60.458 77.594 C 60.756 77.325,61.000 77.081,61.000 77.052 C 61.000 76.923,60.862 77.037,60.406 77.542 M173.212 78.500 C 173.212 78.912,173.245 79.081,173.284 78.875 C 173.324 78.669,173.324 78.331,173.284 78.125 C 173.245 77.919,173.212 78.087,173.212 78.500 M179.881 78.917 C 179.882 79.375,179.915 79.543,179.953 79.289 C 179.991 79.036,179.990 78.661,179.951 78.456 C 179.911 78.251,179.880 78.458,179.881 78.917 M187.821 79.292 L 187.417 79.750 187.917 79.333 C 188.192 79.104,188.448 78.898,188.486 78.875 C 188.524 78.852,188.481 78.833,188.390 78.833 C 188.299 78.833,188.043 79.040,187.821 79.292 M173.383 81.000 C 173.383 81.504,173.415 81.710,173.453 81.458 C 173.491 81.206,173.491 80.794,173.453 80.542 C 173.415 80.290,173.383 80.496,173.383 81.000 M186.333 80.917 C 185.928 81.329,185.635 81.667,185.681 81.667 C 185.726 81.667,186.095 81.329,186.500 80.917 C 186.905 80.504,187.199 80.167,187.153 80.167 C 187.107 80.167,186.738 80.504,186.333 80.917 M134.802 80.625 C 136.114 80.653,138.214 80.653,139.468 80.625 C 140.723 80.596,139.650 80.573,137.083 80.573 C 134.517 80.573,133.490 80.596,134.802 80.625 M180.048 81.250 C 180.049 81.708,180.081 81.876,180.120 81.623 C 180.158 81.369,180.157 80.994,180.117 80.789 C 180.078 80.584,180.046 80.792,180.048 81.250 M224.292 80.625 C 225.598 80.653,227.735 80.653,229.042 80.625 C 230.348 80.596,229.279 80.573,226.667 80.573 C 224.054 80.573,222.985 80.596,224.292 80.625 M201.917 81.265 L 201.417 81.694 201.958 81.336 C 202.256 81.139,202.500 80.945,202.500 80.905 C 202.500 80.781,202.429 80.824,201.917 81.265 M104.208 82.124 C 104.919 82.155,106.081 82.155,106.792 82.124 C 107.502 82.093,106.921 82.067,105.500 82.067 C 104.079 82.067,103.498 82.093,104.208 82.124 M196.797 82.456 C 197.282 82.490,198.032 82.490,198.464 82.456 C 198.896 82.421,198.500 82.394,197.583 82.394 C 196.667 82.395,196.313 82.423,196.797 82.456 M173.542 83.417 C 173.544 83.783,173.578 83.914,173.618 83.706 C 173.658 83.499,173.656 83.199,173.615 83.040 C 173.573 82.880,173.540 83.050,173.542 83.417 M180.209 83.750 C 180.211 84.117,180.245 84.247,180.285 84.040 C 180.324 83.832,180.323 83.532,180.281 83.373 C 180.239 83.214,180.207 83.383,180.209 83.750 M162.033 86.363 C 162.010 87.270,161.924 87.719,161.738 87.905 C 161.594 88.049,161.554 88.167,161.649 88.167 C 162.001 88.167,162.180 87.461,162.124 86.289 L 162.066 85.083 162.033 86.363 M173.709 85.750 C 173.711 86.117,173.745 86.247,173.785 86.040 C 173.824 85.832,173.823 85.532,173.781 85.373 C 173.739 85.214,173.707 85.383,173.709 85.750 M180.372 86.000 C 180.372 86.321,180.406 86.452,180.448 86.292 C 180.490 86.131,180.490 85.869,180.448 85.708 C 180.406 85.548,180.372 85.679,180.372 86.000 M189.500 86.833 C 189.821 87.009,190.158 87.153,190.250 87.153 C 190.342 87.153,190.154 87.009,189.833 86.833 C 189.512 86.658,189.175 86.514,189.083 86.514 C 188.992 86.514,189.179 86.658,189.500 86.833 M219.714 87.783 C 219.511 87.994,219.406 88.167,219.480 88.167 C 219.643 88.167,220.249 87.519,220.152 87.449 C 220.114 87.422,219.917 87.572,219.714 87.783 M110.208 88.115 C 110.369 88.157,110.631 88.157,110.792 88.115 C 110.952 88.073,110.821 88.039,110.500 88.039 C 110.179 88.039,110.048 88.073,110.208 88.115 M99.303 88.291 C 101.073 88.319,103.923 88.318,105.636 88.291 C 107.349 88.264,105.900 88.242,102.417 88.242 C 98.933 88.242,97.532 88.264,99.303 88.291 M125.792 88.290 C 126.456 88.322,127.544 88.322,128.208 88.290 C 128.873 88.259,128.329 88.233,127.000 88.233 C 125.671 88.233,125.127 88.259,125.792 88.290 M146.458 88.290 C 147.123 88.322,148.210 88.322,148.875 88.290 C 149.540 88.259,148.996 88.233,147.667 88.233 C 146.337 88.233,145.794 88.259,146.458 88.290 M157.375 88.291 C 158.085 88.322,159.248 88.322,159.958 88.291 C 160.669 88.259,160.087 88.234,158.667 88.234 C 157.246 88.234,156.665 88.259,157.375 88.291 M176.049 88.291 C 176.764 88.322,177.889 88.322,178.549 88.290 C 179.210 88.259,178.625 88.233,177.250 88.233 C 175.875 88.234,175.335 88.259,176.049 88.291 M214.375 88.282 C 214.535 88.323,214.798 88.323,214.958 88.282 C 215.119 88.240,214.987 88.205,214.667 88.205 C 214.346 88.205,214.215 88.240,214.375 88.282 M216.381 88.290 C 216.912 88.323,217.737 88.323,218.214 88.289 C 218.692 88.256,218.258 88.229,217.250 88.229 C 216.242 88.229,215.851 88.257,216.381 88.290 M235.633 88.291 C 236.394 88.322,237.594 88.322,238.300 88.290 C 239.006 88.259,238.383 88.234,236.917 88.234 C 235.450 88.234,234.872 88.260,235.633 88.291 M195.627 88.451 C 195.834 88.491,196.134 88.490,196.294 88.448 C 196.453 88.406,196.283 88.374,195.917 88.375 C 195.550 88.377,195.420 88.411,195.627 88.451 M95.033 93.533 C 94.817 93.750,94.753 95.597,94.958 95.725 C 95.027 95.767,95.083 95.303,95.083 94.693 L 95.083 93.583 100.859 93.583 C 104.036 93.583,106.600 93.527,106.558 93.458 C 106.419 93.235,95.259 93.307,95.033 93.533 M112.500 93.454 C 119.986 93.570,125.961 93.572,125.891 93.458 C 125.848 93.390,122.162 93.350,117.698 93.371 C 113.235 93.392,110.896 93.429,112.500 93.454 M133.053 93.458 C 135.053 93.485,138.278 93.485,140.220 93.458 C 142.161 93.431,140.525 93.410,136.583 93.410 C 132.642 93.410,131.053 93.432,133.053 93.458 M220.083 93.662 C 236.068 93.729,243.513 93.815,243.723 93.936 C 244.024 94.110,240.620 94.331,237.625 94.333 C 236.986 94.333,236.500 94.405,236.500 94.500 C 236.500 94.599,237.160 94.671,238.125 94.677 C 242.101 94.702,246.833 94.965,246.833 95.161 C 246.833 95.481,240.214 95.543,194.833 95.648 L 146.583 95.760 186.250 95.797 C 228.612 95.836,304.848 95.638,300.833 95.500 C 299.244 95.445,298.604 95.375,298.965 95.294 C 299.493 95.177,299.512 95.145,299.465 94.447 L 299.417 93.721 283.333 93.611 C 274.487 93.550,251.387 93.515,232.000 93.532 L 196.750 93.564 220.083 93.662 M53.208 99.282 C 53.369 99.323,53.631 99.323,53.792 99.282 C 53.952 99.240,53.821 99.205,53.500 99.205 C 53.179 99.205,53.048 99.240,53.208 99.282 " stroke="none" fill="#99c8e7" fill-rule="evenodd"></path><path id="path3" d="M68.000 28.917 C 67.587 29.138,67.325 29.318,67.417 29.318 C 67.508 29.318,67.921 29.138,68.333 28.917 C 68.746 28.696,69.008 28.515,68.917 28.515 C 68.825 28.515,68.412 28.696,68.000 28.917 M77.675 32.123 C 77.886 32.420,78.099 32.624,78.146 32.576 C 78.193 32.529,78.020 32.286,77.761 32.037 L 77.290 31.583 77.675 32.123 M61.937 33.256 C 61.880 33.405,61.840 33.652,61.848 33.805 C 61.856 33.958,61.928 33.862,62.009 33.592 C 62.166 33.066,62.110 32.805,61.937 33.256 M61.732 36.333 C 61.732 37.571,61.758 38.077,61.790 37.458 C 61.822 36.840,61.822 35.827,61.790 35.208 C 61.758 34.590,61.732 35.096,61.732 36.333 M61.833 45.153 C 61.833 47.252,61.780 47.994,61.625 48.056 C 61.501 48.107,61.534 48.146,61.708 48.154 C 61.976 48.166,62.000 47.922,62.000 45.250 C 62.000 43.646,61.962 42.333,61.917 42.333 C 61.871 42.333,61.833 43.602,61.833 45.153 M101.746 69.583 C 101.746 76.092,101.766 78.778,101.792 75.554 C 101.817 72.329,101.817 67.004,101.792 63.721 C 101.766 60.437,101.746 63.075,101.746 69.583 M119.411 69.750 C 119.411 74.333,119.432 76.184,119.458 73.863 C 119.484 71.542,119.484 67.792,119.458 65.530 C 119.432 63.268,119.411 65.167,119.411 69.750 M30.211 73.083 L 30.244 82.417 30.330 73.333 C 30.378 68.337,30.363 64.137,30.297 64.000 C 30.231 63.862,30.192 67.950,30.211 73.083 M189.000 68.083 C 189.311 68.404,189.603 68.667,189.649 68.667 C 189.695 68.667,189.478 68.404,189.167 68.083 C 188.856 67.762,188.564 67.500,188.518 67.500 C 188.472 67.500,188.689 67.762,189.000 68.083 M176.917 68.500 C 177.275 68.867,177.605 69.167,177.651 69.167 C 177.697 69.167,177.441 68.867,177.083 68.500 C 176.725 68.133,176.395 67.833,176.349 67.833 C 176.303 67.833,176.559 68.133,176.917 68.500 M61.569 72.333 C 61.569 74.029,61.594 74.723,61.624 73.875 C 61.654 73.027,61.654 71.640,61.624 70.792 C 61.594 69.944,61.569 70.637,61.569 72.333 M206.833 70.052 C 206.833 70.081,207.077 70.325,207.375 70.594 L 207.917 71.083 207.427 70.542 C 206.971 70.037,206.833 69.923,206.833 70.052 M167.292 70.954 C 167.590 70.991,168.077 70.991,168.375 70.954 C 168.673 70.917,168.429 70.887,167.833 70.887 C 167.237 70.887,166.994 70.917,167.292 70.954 M162.073 80.583 C 162.073 83.150,162.096 84.177,162.125 82.865 C 162.153 81.553,162.153 79.453,162.125 78.198 C 162.096 76.943,162.073 78.017,162.073 80.583 M173.214 77.083 C 173.216 77.542,173.248 77.709,173.286 77.456 C 173.325 77.203,173.324 76.828,173.284 76.623 C 173.244 76.418,173.213 76.625,173.214 77.083 M47.704 77.527 C 47.739 77.634,47.952 77.837,48.176 77.978 L 48.583 78.235 48.179 77.784 C 47.743 77.297,47.601 77.221,47.704 77.527 M203.542 77.917 C 203.544 78.283,203.578 78.414,203.618 78.206 C 203.658 77.999,203.656 77.699,203.615 77.540 C 203.573 77.380,203.540 77.550,203.542 77.917 M59.083 78.522 C 58.625 78.806,58.175 79.115,58.083 79.209 C 57.899 79.399,59.047 78.746,59.681 78.300 C 60.346 77.833,59.974 77.971,59.083 78.522 M48.667 78.223 C 48.667 78.368,50.180 79.376,50.267 79.289 C 50.309 79.246,50.154 79.089,49.922 78.939 C 49.690 78.789,49.313 78.546,49.083 78.397 C 48.854 78.249,48.667 78.171,48.667 78.223 M173.375 79.583 C 173.377 79.950,173.411 80.080,173.451 79.873 C 173.491 79.666,173.490 79.366,173.448 79.206 C 173.406 79.047,173.374 79.217,173.375 79.583 M50.884 79.671 C 51.304 80.001,52.361 80.504,52.620 80.496 C 52.750 80.492,50.664 79.333,50.527 79.333 C 50.487 79.333,50.648 79.485,50.884 79.671 M179.872 80.167 C 179.872 80.487,179.906 80.619,179.948 80.458 C 179.990 80.298,179.990 80.035,179.948 79.875 C 179.906 79.715,179.872 79.846,179.872 80.167 M173.539 82.333 C 173.539 82.654,173.573 82.785,173.615 82.625 C 173.657 82.465,173.657 82.202,173.615 82.042 C 173.573 81.881,173.539 82.012,173.539 82.333 M180.045 82.667 C 180.045 83.079,180.078 83.248,180.118 83.042 C 180.157 82.835,180.157 82.498,180.118 82.292 C 180.078 82.085,180.045 82.254,180.045 82.667 M197.042 82.619 C 197.294 82.658,197.706 82.658,197.958 82.619 C 198.210 82.581,198.004 82.550,197.500 82.550 C 196.996 82.550,196.790 82.581,197.042 82.619 M30.583 83.750 C 30.865 85.141,32.311 87.432,33.583 88.502 C 34.204 89.025,34.196 89.006,33.458 88.234 C 33.023 87.778,32.667 87.331,32.667 87.239 C 32.667 87.148,32.517 86.965,32.333 86.833 C 32.150 86.701,32.000 86.522,32.000 86.435 C 32.000 86.348,31.882 86.146,31.739 85.988 C 31.595 85.829,31.254 85.148,30.980 84.474 C 30.706 83.801,30.528 83.475,30.583 83.750 M207.410 84.875 L 206.583 85.750 207.458 84.923 C 207.940 84.468,208.333 84.074,208.333 84.048 C 208.333 83.924,208.179 84.062,207.410 84.875 M77.861 84.658 C 77.764 84.938,77.719 85.167,77.763 85.167 C 77.875 85.167,78.190 84.301,78.107 84.218 C 78.069 84.181,77.959 84.378,77.861 84.658 M180.209 84.917 C 180.211 85.283,180.245 85.414,180.285 85.206 C 180.324 84.999,180.323 84.699,180.281 84.540 C 180.239 84.380,180.207 84.550,180.209 84.917 M116.324 85.458 L 115.750 86.083 116.375 85.509 C 116.719 85.193,117.000 84.912,117.000 84.884 C 117.000 84.757,116.859 84.877,116.324 85.458 M180.372 87.000 C 180.372 87.321,180.406 87.452,180.448 87.292 C 180.490 87.131,180.490 86.869,180.448 86.708 C 180.406 86.548,180.372 86.679,180.372 87.000 M75.577 88.208 L 74.750 89.083 75.625 88.256 C 76.106 87.801,76.500 87.408,76.500 87.381 C 76.500 87.257,76.346 87.395,75.577 88.208 M99.208 88.125 C 101.202 88.151,104.465 88.151,106.458 88.125 C 108.452 88.098,106.821 88.076,102.833 88.076 C 98.846 88.076,97.215 88.098,99.208 88.125 M125.550 88.124 C 126.356 88.155,127.631 88.155,128.383 88.124 C 129.135 88.093,128.475 88.068,126.917 88.068 C 125.358 88.068,124.743 88.094,125.550 88.124 M145.700 88.124 C 146.497 88.154,147.847 88.155,148.700 88.124 C 149.552 88.094,148.900 88.069,147.250 88.069 C 145.600 88.069,144.902 88.093,145.700 88.124 M157.208 88.124 C 158.010 88.155,159.323 88.155,160.125 88.124 C 160.927 88.094,160.271 88.069,158.667 88.069 C 157.063 88.069,156.406 88.094,157.208 88.124 M175.883 88.124 C 176.690 88.155,177.965 88.155,178.717 88.124 C 179.468 88.093,178.808 88.068,177.250 88.068 C 175.692 88.068,175.077 88.094,175.883 88.124 M215.217 88.124 C 216.023 88.155,217.298 88.155,218.050 88.124 C 218.802 88.093,218.142 88.068,216.583 88.068 C 215.025 88.068,214.410 88.094,215.217 88.124 M235.367 88.124 C 236.164 88.154,237.514 88.155,238.367 88.124 C 239.219 88.094,238.567 88.069,236.917 88.069 C 235.267 88.069,234.569 88.093,235.367 88.124 M197.042 88.455 C 197.385 88.491,197.948 88.491,198.292 88.455 C 198.635 88.419,198.354 88.389,197.667 88.389 C 196.979 88.389,196.698 88.419,197.042 88.455 M34.333 89.074 C 34.333 89.237,38.900 92.156,38.993 92.053 C 39.043 91.999,39.001 91.925,38.901 91.889 C 38.714 91.821,36.610 90.485,35.417 89.675 C 34.523 89.068,34.333 88.963,34.333 89.074 M73.417 89.761 C 70.814 91.408,69.833 92.052,69.833 92.114 C 69.833 92.249,74.213 89.519,74.575 89.158 C 74.856 88.878,74.607 89.007,73.417 89.761 M39.167 92.235 C 39.167 92.296,42.053 94.096,42.667 94.418 C 43.363 94.783,42.411 94.100,40.950 93.187 C 39.363 92.196,39.167 92.091,39.167 92.235 M68.286 92.933 C 67.939 93.160,67.414 93.484,67.119 93.652 C 66.824 93.821,66.042 94.268,65.380 94.646 C 64.718 95.024,64.109 95.333,64.026 95.333 C 63.942 95.333,63.771 95.461,63.645 95.617 C 63.520 95.773,64.017 95.575,64.750 95.178 C 66.419 94.274,69.167 92.647,69.167 92.563 C 69.167 92.422,68.884 92.541,68.286 92.933 M109.402 93.728 C 109.354 93.854,109.342 94.360,109.376 94.853 L 109.438 95.750 109.469 94.722 C 109.488 94.081,109.578 93.663,109.708 93.610 C 109.872 93.545,109.870 93.523,109.703 93.513 C 109.586 93.506,109.450 93.603,109.402 93.728 M128.735 93.728 C 128.687 93.854,128.672 94.360,128.702 94.853 L 128.756 95.750 128.836 94.625 C 128.917 93.492,128.897 93.308,128.735 93.728 M170.250 93.667 C 184.917 93.713,196.152 93.770,195.217 93.792 C 193.801 93.826,193.488 93.882,193.347 94.125 C 193.225 94.334,193.175 94.350,193.172 94.181 C 193.169 94.051,193.124 93.988,193.071 94.040 C 193.018 94.093,192.752 94.072,192.479 93.994 C 191.896 93.827,191.733 94.052,191.983 94.678 C 192.099 94.968,192.149 95.000,192.156 94.792 C 192.177 94.203,193.667 94.390,193.667 94.982 L 193.667 95.463 197.043 95.584 C 204.576 95.853,246.833 95.499,246.833 95.167 C 246.833 94.965,242.156 94.702,238.125 94.677 C 237.160 94.671,236.500 94.599,236.500 94.500 C 236.500 94.405,236.986 94.333,237.625 94.333 C 240.524 94.331,244.023 94.109,243.730 93.945 C 243.360 93.738,198.253 93.510,166.083 93.552 L 143.583 93.582 170.250 93.667 M43.083 94.643 C 43.858 95.397,51.943 99.249,51.606 98.703 C 51.549 98.612,51.296 98.485,51.043 98.423 C 50.790 98.360,50.133 98.097,49.583 97.839 C 47.423 96.824,46.072 96.170,45.833 96.023 C 44.285 95.067,42.706 94.275,43.083 94.643 M97.958 95.791 C 99.540 95.819,102.127 95.819,103.708 95.791 C 105.290 95.764,103.996 95.742,100.833 95.742 C 97.671 95.742,96.377 95.764,97.958 95.791 M113.625 95.792 C 115.848 95.818,119.485 95.818,121.708 95.792 C 123.931 95.765,122.112 95.744,117.667 95.744 C 113.221 95.744,111.402 95.765,113.625 95.792 M133.553 95.792 C 136.012 95.818,139.987 95.818,142.387 95.792 C 144.787 95.766,142.775 95.744,137.917 95.744 C 133.058 95.744,131.095 95.766,133.553 95.792 M61.528 96.686 C 60.580 97.149,59.841 97.563,59.885 97.607 C 59.973 97.695,63.333 96.047,63.333 95.915 C 63.333 95.799,63.415 95.764,61.528 96.686 M59.000 97.861 C 58.771 97.956,57.871 98.287,57.000 98.597 C 56.129 98.906,55.547 99.161,55.706 99.163 C 55.986 99.167,59.479 97.910,59.642 97.747 C 59.772 97.617,59.449 97.674,59.000 97.861 M54.250 99.167 C 53.972 99.286,54.009 99.312,54.468 99.322 C 54.796 99.329,54.978 99.266,54.917 99.167 C 54.797 98.972,54.702 98.972,54.250 99.167 " stroke="none" fill="#59c1f1" fill-rule="evenodd"></path><path id="path4" d="M69.391 28.128 C 69.285 28.195,69.622 28.250,70.141 28.250 C 70.659 28.250,71.271 28.306,71.500 28.373 C 71.815 28.467,71.795 28.438,71.417 28.256 C 70.883 27.999,69.710 27.925,69.391 28.128 M66.250 29.606 C 65.517 30.026,64.804 30.413,64.667 30.467 C 64.529 30.521,64.328 30.644,64.220 30.741 C 64.112 30.837,63.718 31.100,63.345 31.325 C 62.972 31.550,62.667 31.807,62.667 31.896 C 62.667 31.985,62.835 31.905,63.042 31.718 C 63.248 31.531,64.429 30.805,65.667 30.106 C 66.904 29.406,67.842 28.836,67.750 28.839 C 67.658 28.841,66.983 29.187,66.250 29.606 M75.167 30.224 C 75.167 30.269,75.635 30.573,76.208 30.900 C 77.552 31.669,77.894 31.971,78.319 32.762 C 78.510 33.119,78.667 33.309,78.667 33.184 C 78.667 32.744,77.995 31.875,77.292 31.407 C 76.902 31.146,76.433 30.807,76.250 30.653 C 75.915 30.370,75.167 30.075,75.167 30.224 M61.998 32.708 C 61.817 33.006,61.671 33.362,61.674 33.500 C 61.677 33.637,61.791 33.493,61.928 33.178 C 62.064 32.864,62.258 32.507,62.358 32.386 C 62.459 32.266,62.493 32.167,62.435 32.167 C 62.376 32.167,62.180 32.410,61.998 32.708 M53.847 45.227 C 53.885 45.260,54.254 45.336,54.667 45.396 C 55.191 45.472,55.341 45.455,55.167 45.338 C 54.942 45.189,53.680 45.082,53.847 45.227 M50.000 46.500 C 49.679 46.676,49.464 46.823,49.521 46.826 C 49.694 46.838,50.833 46.335,50.833 46.248 C 50.833 46.102,50.594 46.175,50.000 46.500 M47.958 47.429 C 47.312 47.779,47.385 47.900,48.042 47.566 C 48.670 47.247,48.781 47.164,48.569 47.173 C 48.485 47.177,48.210 47.292,47.958 47.429 M60.667 47.583 C 61.555 48.059,61.667 48.078,61.667 47.755 C 61.667 47.613,61.568 47.548,61.432 47.601 C 61.302 47.650,60.969 47.573,60.690 47.429 C 60.411 47.285,60.123 47.170,60.050 47.174 C 59.977 47.178,60.254 47.362,60.667 47.583 M44.386 49.306 C 42.159 50.552,41.957 50.789,44.083 49.660 C 45.875 48.709,46.503 48.327,46.245 48.344 C 46.156 48.350,45.319 48.783,44.386 49.306 M41.792 50.762 C 41.169 51.100,41.207 51.241,41.833 50.917 C 42.108 50.774,42.333 50.623,42.333 50.579 C 42.333 50.472,42.315 50.478,41.792 50.762 M195.875 50.782 C 196.035 50.823,196.298 50.823,196.458 50.782 C 196.619 50.740,196.487 50.705,196.167 50.705 C 195.846 50.705,195.715 50.740,195.875 50.782 M199.461 50.787 C 199.761 50.825,200.211 50.824,200.461 50.786 C 200.712 50.748,200.467 50.717,199.917 50.718 C 199.367 50.719,199.162 50.750,199.461 50.787 M194.417 51.000 C 193.992 51.183,194.430 51.183,195.000 51.000 C 195.335 50.893,195.351 50.866,195.083 50.862 C 194.900 50.859,194.600 50.921,194.417 51.000 M95.602 51.137 C 95.556 51.212,95.739 51.241,96.009 51.201 C 96.279 51.161,96.500 51.100,96.500 51.064 C 96.500 50.937,95.685 51.003,95.602 51.137 M140.750 51.167 C 141.209 51.364,141.372 51.364,141.250 51.167 C 141.193 51.075,140.983 51.005,140.782 51.012 C 140.430 51.023,140.429 51.029,140.750 51.167 M161.417 51.192 C 161.600 51.293,161.844 51.492,161.958 51.636 C 162.143 51.867,162.167 51.868,162.167 51.642 C 162.167 51.502,161.976 51.300,161.742 51.193 C 161.207 50.950,160.972 50.949,161.417 51.192 M173.353 51.426 C 173.075 51.660,172.612 52.166,172.324 52.551 C 171.934 53.073,172.027 53.006,172.692 52.287 C 173.182 51.757,173.808 51.258,174.083 51.176 C 174.475 51.061,174.505 51.026,174.221 51.014 C 174.022 51.006,173.631 51.192,173.353 51.426 M180.311 51.257 C 180.776 51.458,180.859 51.571,180.793 51.912 C 180.750 52.138,180.779 52.284,180.857 52.235 C 181.316 51.952,180.648 50.990,180.005 51.007 C 179.865 51.010,180.002 51.123,180.311 51.257 M222.167 51.500 C 221.983 51.683,221.838 51.927,221.845 52.042 C 221.851 52.156,221.934 52.089,222.029 51.893 C 222.124 51.696,222.363 51.457,222.559 51.362 C 222.756 51.267,222.823 51.184,222.708 51.178 C 222.594 51.172,222.350 51.317,222.167 51.500 M40.208 51.686 C 39.456 52.168,39.526 52.278,40.292 51.818 C 41.066 51.352,41.091 51.333,40.903 51.336 C 40.819 51.338,40.506 51.495,40.208 51.686 M132.429 51.595 C 132.285 51.739,132.173 51.983,132.180 52.137 C 132.191 52.365,132.210 52.371,132.285 52.167 C 132.335 52.029,132.491 51.785,132.631 51.625 C 132.947 51.262,132.785 51.239,132.429 51.595 M155.162 51.676 C 155.061 51.864,155.003 52.093,155.033 52.183 C 155.063 52.274,155.174 52.120,155.280 51.841 C 155.499 51.260,155.433 51.169,155.162 51.676 M204.681 51.723 C 204.841 51.853,206.167 52.324,206.167 52.251 C 206.167 52.151,205.021 51.667,204.785 51.667 C 204.689 51.667,204.642 51.692,204.681 51.723 M38.250 52.833 C 37.792 53.105,37.478 53.329,37.554 53.330 C 37.717 53.334,39.167 52.498,39.167 52.401 C 39.167 52.294,39.130 52.311,38.250 52.833 M206.347 52.395 C 206.519 52.549,207.500 53.000,207.500 52.925 C 207.500 52.829,206.576 52.333,206.397 52.333 C 206.332 52.333,206.309 52.361,206.347 52.395 M141.935 53.083 C 142.072 53.696,142.168 53.829,142.164 53.403 C 142.163 53.227,142.085 52.971,141.992 52.833 C 141.869 52.651,141.853 52.718,141.935 53.083 M189.279 53.708 L 188.223 54.750 189.236 53.845 C 189.794 53.347,190.321 52.878,190.408 52.803 C 190.495 52.728,190.515 52.667,190.452 52.667 C 190.388 52.667,189.861 53.135,189.279 53.708 M116.264 53.756 C 116.822 54.303,117.445 54.975,117.648 55.250 C 117.852 55.525,117.947 55.600,117.859 55.417 C 117.618 54.914,116.381 53.556,115.780 53.135 C 115.489 52.930,115.706 53.210,116.264 53.756 M207.750 53.107 C 208.599 53.860,208.911 54.080,208.584 53.693 C 208.402 53.478,208.103 53.225,207.919 53.131 C 207.734 53.036,207.658 53.026,207.750 53.107 M179.320 54.036 C 178.381 55.195,178.097 55.627,178.742 54.917 C 179.411 54.178,180.059 53.333,179.956 53.333 C 179.919 53.333,179.633 53.650,179.320 54.036 M221.275 54.042 C 221.218 54.431,221.133 54.938,221.087 55.167 C 221.041 55.396,221.104 55.283,221.226 54.917 C 221.588 53.833,221.683 53.333,221.526 53.333 C 221.445 53.333,221.332 53.652,221.275 54.042 M36.292 54.003 C 35.213 54.681,35.284 54.794,36.375 54.136 C 37.424 53.503,37.429 53.499,37.236 53.503 C 37.152 53.505,36.727 53.730,36.292 54.003 M232.023 54.667 C 232.023 54.804,232.088 55.067,232.167 55.250 C 232.257 55.460,232.310 55.491,232.310 55.333 C 232.310 55.196,232.245 54.933,232.167 54.750 C 232.076 54.540,232.023 54.509,232.023 54.667 M33.981 55.530 C 33.487 55.914,32.861 56.495,32.588 56.822 C 32.264 57.212,32.436 57.100,33.088 56.495 C 33.636 55.989,34.308 55.410,34.583 55.209 C 34.858 55.008,35.037 54.842,34.981 54.839 C 34.925 54.836,34.475 55.147,33.981 55.530 M207.994 56.260 C 207.703 56.769,207.492 57.214,207.525 57.247 C 207.558 57.281,207.832 56.864,208.133 56.321 C 208.434 55.778,208.645 55.333,208.602 55.333 C 208.559 55.333,208.286 55.750,207.994 56.260 M168.975 56.708 C 168.578 57.190,168.386 57.478,168.549 57.349 C 168.890 57.080,169.902 55.833,169.780 55.833 C 169.735 55.833,169.373 56.227,168.975 56.708 M176.847 57.125 L 175.813 58.417 176.745 57.417 C 177.604 56.494,178.106 55.833,177.946 55.833 C 177.910 55.833,177.416 56.415,176.847 57.125 M186.992 56.683 C 186.800 57.058,186.672 57.394,186.707 57.429 C 186.742 57.464,186.934 57.157,187.133 56.746 C 187.587 55.811,187.464 55.756,186.992 56.683 M197.877 56.786 C 198.131 56.825,198.506 56.824,198.711 56.784 C 198.916 56.744,198.708 56.713,198.250 56.714 C 197.792 56.716,197.624 56.748,197.877 56.786 M195.917 57.093 C 195.386 57.352,195.540 57.336,196.750 57.004 C 197.210 56.878,197.217 56.867,196.833 56.858 C 196.604 56.853,196.192 56.958,195.917 57.093 M199.667 57.000 C 199.896 57.073,200.233 57.133,200.417 57.133 C 200.681 57.133,200.663 57.106,200.333 57.000 C 200.104 56.927,199.767 56.867,199.583 56.867 C 199.319 56.867,199.337 56.894,199.667 57.000 M194.375 57.853 C 193.807 58.216,193.623 58.461,194.125 58.185 C 194.507 57.975,195.106 57.511,195.000 57.508 C 194.954 57.507,194.673 57.662,194.375 57.853 M143.190 57.833 C 143.190 57.971,143.255 58.233,143.333 58.417 C 143.424 58.627,143.477 58.658,143.477 58.500 C 143.477 58.362,143.412 58.100,143.333 57.917 C 143.243 57.707,143.190 57.676,143.190 57.833 M167.667 58.333 C 167.376 58.700,167.176 59.000,167.222 59.000 C 167.268 59.000,167.543 58.700,167.833 58.333 C 168.124 57.967,168.324 57.667,168.278 57.667 C 168.232 57.667,167.957 57.967,167.667 58.333 M203.250 58.161 C 203.800 58.430,204.325 58.650,204.417 58.651 C 204.664 58.651,203.150 57.893,202.667 57.774 C 202.438 57.717,202.700 57.892,203.250 58.161 M110.333 58.008 C 110.911 58.401,111.241 58.515,110.833 58.182 C 110.604 57.994,110.342 57.840,110.250 57.840 C 110.158 57.839,110.196 57.915,110.333 58.008 M206.644 58.517 C 206.403 58.783,206.258 59.000,206.323 59.000 C 206.487 59.000,207.240 58.184,207.153 58.101 C 207.115 58.064,206.886 58.252,206.644 58.517 M232.845 58.115 C 232.883 58.548,233.143 58.915,233.155 58.552 C 233.161 58.351,233.092 58.140,233.000 58.083 C 232.908 58.027,232.839 58.041,232.845 58.115 M101.912 69.750 C 101.912 76.167,101.933 78.767,101.958 75.529 C 101.984 72.291,101.984 67.041,101.958 63.863 C 101.933 60.684,101.912 63.333,101.912 69.750 M175.142 59.208 C 174.838 59.598,174.723 59.811,174.886 59.681 C 175.209 59.425,175.905 58.500,175.775 58.500 C 175.731 58.500,175.446 58.819,175.142 59.208 M193.423 58.931 C 193.267 59.168,193.178 59.400,193.224 59.447 C 193.271 59.493,193.429 59.299,193.575 59.015 C 193.899 58.389,193.810 58.339,193.423 58.931 M119.271 59.083 C 119.333 59.358,119.433 63.858,119.494 69.083 L 119.605 78.583 119.590 69.000 C 119.579 61.696,119.526 59.318,119.368 59.000 C 119.162 58.589,119.161 58.590,119.271 59.083 M186.105 59.348 C 186.047 59.638,186.012 60.522,186.027 61.313 L 186.054 62.750 186.167 60.833 C 186.287 58.797,186.275 58.502,186.105 59.348 M166.578 59.625 L 166.285 60.083 166.726 59.679 C 167.202 59.242,167.246 59.167,167.019 59.167 C 166.938 59.167,166.740 59.373,166.578 59.625 M226.413 59.510 C 226.353 59.702,226.347 59.903,226.401 59.957 C 226.456 60.011,226.501 59.912,226.503 59.736 C 226.505 59.469,226.531 59.458,226.667 59.667 C 226.806 59.882,226.829 59.878,226.831 59.635 C 226.835 59.205,226.538 59.117,226.413 59.510 M130.271 59.590 C 130.213 59.739,130.173 59.986,130.181 60.139 C 130.189 60.292,130.261 60.195,130.342 59.925 C 130.499 59.399,130.444 59.139,130.271 59.590 M112.026 59.750 C 112.026 59.842,112.126 60.179,112.250 60.500 C 112.374 60.821,112.477 60.971,112.480 60.833 C 112.483 60.696,112.382 60.358,112.256 60.083 C 112.130 59.808,112.027 59.658,112.026 59.750 M137.200 60.083 C 137.200 60.267,137.260 60.604,137.333 60.833 C 137.439 61.163,137.467 61.181,137.467 60.917 C 137.467 60.733,137.407 60.396,137.333 60.167 C 137.228 59.837,137.200 59.819,137.200 60.083 M173.528 61.292 C 172.822 62.162,172.731 62.311,173.251 61.750 C 174.009 60.933,174.745 60.000,174.633 60.000 C 174.601 60.000,174.104 60.581,173.528 61.292 M165.815 60.625 C 165.254 61.244,164.942 61.667,165.043 61.667 C 165.089 61.667,165.403 61.329,165.741 60.917 C 166.419 60.089,166.466 59.905,165.815 60.625 M226.189 60.417 C 226.174 60.600,226.120 60.938,226.070 61.167 C 225.990 61.526,226.003 61.543,226.166 61.287 C 226.270 61.125,226.324 60.787,226.286 60.537 C 226.241 60.241,226.207 60.199,226.189 60.417 M226.857 60.417 C 226.857 60.600,226.921 60.900,227.000 61.083 L 227.143 61.417 227.143 61.083 C 227.143 60.900,227.079 60.600,227.000 60.417 L 226.857 60.083 226.857 60.417 M30.353 60.850 C 30.250 61.143,30.172 61.466,30.178 61.567 C 30.185 61.667,30.298 61.457,30.429 61.098 C 30.560 60.739,30.639 60.417,30.603 60.381 C 30.568 60.345,30.455 60.556,30.353 60.850 M112.577 69.667 C 112.577 74.112,112.599 75.931,112.625 73.708 C 112.651 71.485,112.651 67.848,112.625 65.625 C 112.599 63.402,112.577 65.221,112.577 69.667 M144.268 62.083 C 144.405 62.696,144.501 62.829,144.497 62.403 C 144.496 62.227,144.419 61.971,144.326 61.833 C 144.202 61.651,144.187 61.718,144.268 62.083 M30.039 62.667 C 30.039 62.987,30.073 63.119,30.115 62.958 C 30.157 62.798,30.157 62.535,30.115 62.375 C 30.073 62.215,30.039 62.346,30.039 62.667 M163.391 63.667 C 162.947 64.218,162.490 64.632,162.375 64.589 C 162.260 64.546,162.167 64.583,162.167 64.672 C 162.167 65.044,162.649 64.786,163.180 64.130 C 164.249 62.812,164.357 62.667,164.278 62.667 C 164.234 62.667,163.835 63.117,163.391 63.667 M171.444 63.875 C 170.823 64.655,170.728 64.817,171.176 64.333 C 171.864 63.589,172.577 62.667,172.464 62.667 C 172.431 62.667,171.972 63.210,171.444 63.875 M219.000 63.333 C 218.896 63.719,218.844 64.066,218.884 64.106 C 218.924 64.146,219.037 63.860,219.136 63.470 C 219.235 63.080,219.288 62.732,219.252 62.697 C 219.217 62.662,219.104 62.948,219.000 63.333 M234.190 63.264 C 234.288 63.623,234.407 63.954,234.454 64.000 C 234.600 64.143,234.306 62.925,234.155 62.764 C 234.076 62.680,234.092 62.905,234.190 63.264 M193.733 63.306 C 193.909 63.591,195.819 65.000,196.030 65.000 C 196.118 65.000,196.078 64.887,195.940 64.750 C 195.803 64.612,195.620 64.500,195.534 64.500 C 195.447 64.500,194.976 64.181,194.487 63.792 C 193.997 63.402,193.658 63.183,193.733 63.306 M129.271 63.590 C 129.213 63.739,129.173 63.986,129.181 64.139 C 129.189 64.292,129.261 64.195,129.342 63.925 C 129.499 63.399,129.444 63.139,129.271 63.590 M225.259 65.093 C 225.197 65.427,225.179 65.734,225.219 65.775 C 225.260 65.816,225.345 65.575,225.407 65.241 C 225.470 64.906,225.488 64.599,225.447 64.559 C 225.407 64.518,225.322 64.758,225.259 65.093 M54.739 64.816 C 54.791 64.899,55.075 65.052,55.371 65.155 C 55.995 65.372,55.806 65.158,55.114 64.864 C 54.856 64.754,54.688 64.732,54.739 64.816 M186.838 65.420 C 186.833 65.614,187.634 66.833,187.767 66.833 C 187.816 66.833,187.712 66.627,187.537 66.375 C 187.361 66.123,187.133 65.767,187.030 65.583 C 186.928 65.400,186.841 65.326,186.838 65.420 M135.345 66.429 C 135.231 66.940,135.175 67.397,135.221 67.443 C 135.267 67.489,135.392 67.102,135.500 66.583 C 135.608 66.065,135.664 65.608,135.625 65.569 C 135.586 65.530,135.460 65.917,135.345 66.429 M197.500 65.556 C 197.500 65.599,197.742 65.718,198.038 65.822 C 198.334 65.925,198.502 65.940,198.413 65.857 C 198.223 65.679,197.500 65.441,197.500 65.556 M170.085 65.836 C 170.141 65.926,170.419 66.000,170.704 66.000 C 171.334 66.000,171.270 65.917,170.533 65.776 C 170.190 65.711,170.021 65.733,170.085 65.836 M50.667 66.175 L 50.250 66.509 50.708 66.311 C 50.960 66.202,51.167 66.050,51.167 65.973 C 51.167 65.783,51.144 65.792,50.667 66.175 M228.169 66.597 C 228.171 66.773,228.248 67.029,228.341 67.167 C 228.464 67.349,228.480 67.282,228.398 66.917 C 228.261 66.304,228.166 66.171,228.169 66.597 M174.333 66.619 C 174.471 66.671,174.790 66.817,175.042 66.944 C 175.294 67.071,175.500 67.138,175.500 67.092 C 175.500 66.961,174.541 66.499,174.300 66.513 C 174.154 66.522,174.165 66.557,174.333 66.619 M200.500 66.750 C 200.729 66.881,200.992 66.988,201.083 66.988 C 201.175 66.988,201.063 66.881,200.833 66.750 C 200.604 66.619,200.342 66.512,200.250 66.512 C 200.158 66.512,200.271 66.619,200.500 66.750 M48.659 67.396 C 48.039 67.812,47.481 68.331,47.359 68.604 C 47.162 69.047,47.185 69.037,47.652 68.479 C 47.930 68.146,48.534 67.632,48.995 67.336 C 49.718 66.873,49.962 66.667,49.790 66.667 C 49.766 66.667,49.257 66.995,48.659 67.396 M59.417 67.253 C 59.600 67.402,59.900 67.598,60.083 67.688 L 60.417 67.852 60.083 67.580 C 59.900 67.431,59.600 67.235,59.417 67.145 L 59.083 66.982 59.417 67.253 M188.578 67.833 C 189.031 68.337,189.630 68.895,189.909 69.073 C 190.188 69.250,190.379 69.360,190.333 69.316 C 188.276 67.367,187.790 66.956,188.578 67.833 M235.272 67.417 C 235.448 68.210,235.686 68.686,235.565 68.000 C 235.508 67.679,235.394 67.304,235.312 67.167 C 235.214 67.003,235.200 67.090,235.272 67.417 M217.917 67.667 C 217.853 67.955,217.836 68.225,217.879 68.268 C 217.921 68.310,218.004 68.105,218.063 67.813 C 218.201 67.118,218.067 66.983,217.917 67.667 M128.262 67.762 C 128.201 68.006,128.183 68.238,128.222 68.277 C 128.261 68.317,128.343 68.149,128.405 67.905 C 128.466 67.661,128.484 67.429,128.445 67.389 C 128.406 67.350,128.323 67.518,128.262 67.762 M177.166 68.417 C 177.487 68.783,177.815 69.158,177.895 69.250 C 177.975 69.342,177.963 69.267,177.868 69.083 C 177.773 68.900,177.445 68.525,177.139 68.250 L 176.583 67.751 177.166 68.417 M203.514 67.894 C 203.850 68.188,204.397 68.364,204.188 68.111 C 204.062 67.958,203.843 67.833,203.702 67.833 C 203.560 67.833,203.476 67.861,203.514 67.894 M61.403 72.250 C 61.403 73.992,61.428 74.682,61.458 73.783 C 61.488 72.884,61.488 71.459,61.457 70.616 C 61.427 69.773,61.403 70.508,61.403 72.250 M190.584 69.501 C 190.696 69.681,191.667 70.222,191.667 70.104 C 191.667 70.065,191.400 69.875,191.073 69.683 C 190.747 69.490,190.527 69.408,190.584 69.501 M206.500 69.555 C 206.500 69.601,206.800 69.876,207.167 70.167 C 207.533 70.457,207.833 70.657,207.833 70.611 C 207.833 70.566,207.533 70.290,207.167 70.000 C 206.800 69.710,206.500 69.509,206.500 69.555 M139.362 70.167 C 139.370 70.600,139.633 71.311,139.638 70.917 C 139.641 70.733,139.579 70.433,139.500 70.250 C 139.412 70.046,139.359 70.014,139.362 70.167 M178.616 70.581 C 178.768 70.901,178.923 71.133,178.959 71.097 C 179.035 71.020,178.529 70.000,178.415 70.000 C 178.373 70.000,178.463 70.262,178.616 70.581 M192.333 70.415 C 192.333 70.529,193.354 71.035,193.430 70.959 C 193.466 70.923,193.234 70.768,192.915 70.616 C 192.595 70.463,192.333 70.373,192.333 70.415 M146.604 71.167 C 146.662 71.487,146.776 71.900,146.856 72.083 C 146.956 72.312,146.968 72.234,146.896 71.833 C 146.838 71.512,146.724 71.100,146.644 70.917 C 146.544 70.688,146.532 70.766,146.604 71.167 M223.938 71.188 C 223.799 71.882,223.933 72.017,224.083 71.333 C 224.147 71.045,224.164 70.775,224.121 70.732 C 224.079 70.690,223.996 70.895,223.938 71.188 M229.181 71.083 C 229.176 71.267,229.244 71.529,229.333 71.667 C 229.547 71.998,229.547 71.582,229.333 71.083 L 229.190 70.750 229.181 71.083 M167.375 71.119 C 167.627 71.158,168.040 71.158,168.292 71.119 C 168.544 71.081,168.337 71.050,167.833 71.050 C 167.329 71.050,167.123 71.081,167.375 71.119 M208.310 71.282 C 208.522 71.688,208.833 71.937,208.833 71.702 C 208.833 71.619,208.672 71.409,208.476 71.234 C 208.121 70.919,208.119 70.919,208.310 71.282 M170.093 71.578 C 170.271 71.713,170.497 71.825,170.596 71.828 C 170.695 71.831,170.951 72.021,171.167 72.250 C 171.382 72.479,171.623 72.667,171.702 72.667 C 171.888 72.667,170.858 71.772,170.386 71.524 C 169.875 71.256,169.708 71.287,170.093 71.578 M164.643 71.843 L 164.250 72.186 164.750 71.894 C 165.408 71.508,165.418 71.500,165.213 71.500 C 165.116 71.500,164.860 71.654,164.643 71.843 M195.092 71.655 C 195.179 71.740,195.475 71.856,195.750 71.913 C 196.248 72.016,196.248 72.016,195.689 71.758 C 195.049 71.464,194.863 71.431,195.092 71.655 M216.781 72.064 C 216.718 72.227,216.671 72.486,216.677 72.639 C 216.684 72.823,216.742 72.781,216.849 72.514 C 216.937 72.293,216.984 72.034,216.952 71.939 C 216.920 71.844,216.843 71.900,216.781 72.064 M127.014 72.764 C 126.906 73.191,126.850 73.572,126.888 73.610 C 126.926 73.648,127.045 73.330,127.153 72.903 C 127.260 72.476,127.317 72.095,127.279 72.057 C 127.241 72.018,127.121 72.337,127.014 72.764 M163.722 72.542 C 163.261 73.059,162.667 73.939,162.667 74.107 C 162.667 74.183,162.926 73.860,163.244 73.389 C 163.561 72.918,163.917 72.498,164.035 72.455 C 164.153 72.413,164.207 72.331,164.153 72.273 C 164.100 72.215,163.906 72.336,163.722 72.542 M200.069 73.690 C 199.998 73.805,200.020 73.840,200.124 73.777 C 200.449 73.575,202.294 75.111,202.839 76.037 C 203.124 76.521,203.304 76.729,203.239 76.500 C 203.066 75.883,202.258 74.928,201.368 74.286 C 200.284 73.504,200.206 73.468,200.069 73.690 M172.436 74.083 C 172.495 74.358,172.617 74.658,172.707 74.750 C 172.815 74.859,172.829 74.774,172.749 74.500 C 172.551 73.827,172.313 73.510,172.436 74.083 M179.723 75.333 C 179.723 76.021,179.752 76.302,179.788 75.958 C 179.824 75.615,179.824 75.052,179.788 74.708 C 179.752 74.365,179.723 74.646,179.723 75.333 M230.000 74.639 C 230.000 74.779,229.084 74.844,226.708 74.871 L 223.417 74.909 226.655 74.958 C 229.668 75.004,230.467 74.912,230.114 74.558 C 230.051 74.496,230.000 74.532,230.000 74.639 M133.812 74.879 C 133.883 74.950,135.360 74.987,137.095 74.962 L 140.250 74.916 136.966 74.833 C 135.160 74.787,133.741 74.808,133.812 74.879 M147.616 75.083 C 147.672 75.358,147.815 75.883,147.933 76.250 L 148.149 76.917 148.053 76.250 C 148.000 75.883,147.857 75.358,147.735 75.083 L 147.514 74.583 147.616 75.083 M210.287 75.583 C 210.338 76.133,210.407 76.615,210.440 76.653 C 210.556 76.787,210.465 75.412,210.330 75.000 C 210.245 74.741,210.229 74.962,210.287 75.583 M61.092 76.117 C 60.936 76.753,60.520 77.365,60.326 77.245 C 60.238 77.191,60.167 77.262,60.167 77.403 C 60.167 77.543,59.946 77.772,59.677 77.911 C 59.408 78.050,59.136 78.248,59.073 78.349 C 58.901 78.628,59.842 78.009,60.455 77.440 C 60.954 76.977,61.471 75.915,61.287 75.731 C 61.243 75.687,61.155 75.861,61.092 76.117 M162.212 76.333 C 162.212 76.746,162.245 76.915,162.284 76.708 C 162.324 76.502,162.324 76.165,162.284 75.958 C 162.245 75.752,162.212 75.921,162.212 76.333 M237.514 76.083 C 237.509 76.175,237.652 76.700,237.831 77.250 C 238.011 77.800,238.113 77.990,238.058 77.673 C 237.948 77.040,237.529 75.816,237.514 76.083 M125.947 76.897 C 125.885 77.060,125.838 77.319,125.844 77.472 C 125.851 77.656,125.909 77.614,126.015 77.348 C 126.104 77.126,126.150 76.868,126.119 76.773 C 126.087 76.678,126.010 76.734,125.947 76.897 M179.881 77.417 C 179.882 77.875,179.915 78.043,179.953 77.789 C 179.991 77.536,179.990 77.161,179.951 76.956 C 179.911 76.751,179.880 76.958,179.881 77.417 M173.042 77.417 C 173.044 77.783,173.078 77.914,173.118 77.706 C 173.158 77.499,173.156 77.199,173.115 77.040 C 173.073 76.880,173.040 77.050,173.042 77.417 M47.746 77.308 C 47.928 77.520,48.715 78.086,49.496 78.567 C 51.464 79.776,51.398 79.740,51.283 79.554 C 51.228 79.464,50.597 79.038,49.883 78.608 C 49.168 78.178,48.321 77.623,48.000 77.375 C 47.496 76.985,47.462 76.976,47.746 77.308 M210.545 77.667 C 210.545 78.079,210.578 78.248,210.618 78.042 C 210.657 77.835,210.657 77.498,210.618 77.292 C 210.578 77.085,210.545 77.254,210.545 77.667 M125.583 78.333 C 125.520 78.621,125.503 78.892,125.545 78.934 C 125.588 78.977,125.671 78.772,125.729 78.479 C 125.868 77.784,125.733 77.650,125.583 78.333 M203.262 78.762 C 203.201 79.006,203.183 79.238,203.222 79.277 C 203.261 79.317,203.343 79.149,203.405 78.905 C 203.466 78.661,203.484 78.429,203.445 78.389 C 203.406 78.350,203.323 78.518,203.262 78.762 M112.185 79.019 C 112.083 79.313,112.028 79.583,112.063 79.619 C 112.099 79.655,112.212 79.443,112.315 79.148 C 112.417 78.854,112.472 78.583,112.437 78.548 C 112.401 78.512,112.288 78.724,112.185 79.019 M210.372 79.167 C 210.372 79.487,210.406 79.619,210.448 79.458 C 210.490 79.298,210.490 79.035,210.448 78.875 C 210.406 78.715,210.372 78.846,210.372 79.167 M119.360 79.278 C 119.345 79.568,119.290 79.943,119.237 80.111 C 119.147 80.399,119.152 80.400,119.331 80.121 C 119.435 79.959,119.490 79.584,119.454 79.288 L 119.387 78.750 119.360 79.278 M180.050 79.667 C 180.050 80.171,180.081 80.377,180.119 80.125 C 180.158 79.873,180.158 79.460,180.119 79.208 C 180.081 78.956,180.050 79.162,180.050 79.667 M189.703 79.296 C 190.652 80.098,190.948 80.250,190.167 79.534 C 189.754 79.157,189.358 78.844,189.286 78.840 C 189.214 78.837,189.401 79.041,189.703 79.296 M57.333 79.347 L 56.917 79.687 57.458 79.422 C 57.756 79.277,58.000 79.123,58.000 79.079 C 58.000 78.913,57.735 79.020,57.333 79.347 M148.680 79.167 C 148.676 79.304,148.778 79.754,148.908 80.167 C 149.038 80.579,149.148 80.804,149.153 80.667 C 149.158 80.529,149.055 80.079,148.925 79.667 C 148.795 79.254,148.685 79.029,148.680 79.167 M173.212 79.833 C 173.212 80.246,173.245 80.415,173.284 80.208 C 173.324 80.002,173.324 79.665,173.284 79.458 C 173.245 79.252,173.212 79.421,173.212 79.833 M202.930 79.792 C 202.879 79.952,202.641 80.294,202.402 80.553 C 202.162 80.811,202.002 81.058,202.046 81.102 C 202.136 81.192,203.167 79.842,203.167 79.634 C 203.167 79.397,203.025 79.491,202.930 79.792 M55.500 80.178 C 54.904 80.441,54.529 80.658,54.667 80.661 C 54.804 80.663,55.367 80.447,55.917 80.179 C 57.199 79.555,56.915 79.554,55.500 80.178 M186.816 80.208 L 186.443 80.750 186.972 80.260 C 187.541 79.733,187.583 79.667,187.345 79.667 C 187.259 79.667,187.021 79.910,186.816 80.208 M52.181 80.062 C 52.352 80.216,53.333 80.667,53.333 80.592 C 53.333 80.496,52.409 80.000,52.230 80.000 C 52.165 80.000,52.142 80.028,52.181 80.062 M238.600 80.444 C 238.754 81.083,238.833 81.143,238.833 80.621 C 238.833 80.382,238.755 80.138,238.660 80.079 C 238.546 80.009,238.526 80.135,238.600 80.444 M111.243 80.645 C 111.008 80.908,110.520 81.258,110.157 81.421 C 109.794 81.585,109.530 81.752,109.570 81.793 C 109.709 81.931,111.249 80.983,111.549 80.574 C 111.960 80.015,111.764 80.060,111.243 80.645 M191.073 80.316 C 191.135 80.416,191.340 80.581,191.529 80.682 C 191.776 80.814,191.842 80.815,191.761 80.684 C 191.699 80.584,191.493 80.419,191.304 80.318 C 191.057 80.186,190.992 80.185,191.073 80.316 M132.098 81.042 C 131.965 81.248,131.813 81.642,131.760 81.917 C 131.708 82.192,131.712 82.304,131.769 82.167 C 132.173 81.201,132.398 80.843,132.640 80.779 C 132.889 80.713,132.888 80.703,132.629 80.686 C 132.471 80.675,132.232 80.835,132.098 81.042 M141.417 80.783 C 141.600 80.826,141.844 80.982,141.958 81.129 C 142.073 81.277,142.167 81.323,142.167 81.232 C 142.167 80.949,141.782 80.666,141.425 80.686 C 141.091 80.705,141.090 80.707,141.417 80.783 M221.648 81.042 C 221.453 81.415,221.453 81.415,221.809 81.099 C 222.206 80.746,222.243 80.667,222.006 80.667 C 221.917 80.667,221.757 80.835,221.648 81.042 M231.417 81.000 C 231.583 81.183,231.747 81.333,231.782 81.333 C 231.817 81.333,231.765 81.183,231.667 81.000 C 231.569 80.817,231.404 80.667,231.302 80.667 C 231.199 80.667,231.251 80.817,231.417 81.000 M192.833 81.305 C 193.176 81.530,195.190 82.199,195.273 82.116 C 195.330 82.059,194.814 81.869,192.917 81.250 C 192.659 81.166,192.640 81.179,192.833 81.305 M201.083 81.588 C 200.717 81.814,200.492 81.998,200.583 81.999 C 200.785 81.999,201.833 81.373,201.833 81.252 C 201.833 81.129,201.816 81.136,201.083 81.588 M214.429 81.595 C 214.367 81.839,214.349 82.071,214.389 82.111 C 214.428 82.150,214.510 81.982,214.571 81.738 C 214.633 81.494,214.651 81.262,214.611 81.223 C 214.572 81.183,214.490 81.351,214.429 81.595 M238.857 81.333 C 238.857 81.471,238.921 81.733,239.000 81.917 C 239.090 82.127,239.143 82.158,239.143 82.000 C 239.143 81.862,239.079 81.600,239.000 81.417 C 238.910 81.207,238.857 81.176,238.857 81.333 M78.712 82.000 C 78.712 82.412,78.745 82.581,78.784 82.375 C 78.824 82.169,78.824 81.831,78.784 81.625 C 78.745 81.419,78.712 81.587,78.712 82.000 M124.762 81.762 C 124.701 82.006,124.683 82.238,124.722 82.277 C 124.761 82.317,124.843 82.149,124.905 81.905 C 124.966 81.661,124.984 81.429,124.945 81.389 C 124.906 81.350,124.823 81.518,124.762 81.762 M30.023 82.000 C 29.992 82.995,30.482 84.677,31.100 85.694 C 31.835 86.905,32.003 86.970,31.353 85.792 C 30.780 84.753,30.339 83.444,30.166 82.269 C 30.065 81.574,30.038 81.524,30.023 82.000 M209.593 81.971 C 209.445 82.436,208.177 84.370,207.853 84.623 C 207.606 84.817,207.606 84.826,207.859 84.739 C 208.282 84.592,209.979 81.924,209.778 81.722 C 209.733 81.678,209.650 81.790,209.593 81.971 M173.387 82.833 C 173.387 83.429,173.417 83.673,173.454 83.375 C 173.491 83.077,173.491 82.590,173.454 82.292 C 173.417 81.994,173.387 82.237,173.387 82.833 M180.212 82.500 C 180.212 82.912,180.245 83.081,180.284 82.875 C 180.324 82.669,180.324 82.331,180.284 82.125 C 180.245 81.919,180.212 82.087,180.212 82.500 M231.836 82.264 C 231.837 82.531,231.915 82.862,232.009 83.000 C 232.131 83.179,232.147 83.061,232.067 82.583 C 231.929 81.757,231.833 81.623,231.836 82.264 M184.905 82.571 C 184.748 83.195,186.042 85.167,186.608 85.167 C 186.667 85.167,186.320 84.749,185.838 84.239 C 185.046 83.402,184.969 83.255,185.053 82.739 C 185.159 82.083,185.056 81.967,184.905 82.571 M118.200 83.087 C 118.001 83.497,117.873 83.833,117.915 83.833 C 118.028 83.833,118.702 82.480,118.626 82.404 C 118.591 82.369,118.400 82.677,118.200 83.087 M78.438 83.354 C 78.299 84.049,78.433 84.184,78.583 83.500 C 78.647 83.212,78.664 82.941,78.621 82.899 C 78.579 82.857,78.496 83.061,78.438 83.354 M116.675 85.221 L 115.600 86.417 116.562 85.500 C 117.351 84.749,118.011 83.955,117.798 84.013 C 117.771 84.020,117.266 84.564,116.675 85.221 M142.687 84.083 C 142.680 84.175,142.777 84.625,142.905 85.083 C 143.033 85.542,143.138 85.767,143.139 85.583 C 143.141 85.229,142.711 83.801,142.687 84.083 M173.548 84.750 C 173.549 85.208,173.581 85.376,173.620 85.123 C 173.658 84.869,173.657 84.494,173.617 84.289 C 173.578 84.084,173.546 84.292,173.548 84.750 M180.375 84.917 C 180.377 85.283,180.411 85.414,180.451 85.206 C 180.491 84.999,180.490 84.699,180.448 84.540 C 180.406 84.380,180.374 84.550,180.375 84.917 M239.693 84.750 C 239.692 84.842,239.793 85.179,239.917 85.500 C 240.040 85.821,240.144 85.971,240.146 85.833 C 240.149 85.696,240.049 85.358,239.923 85.083 C 239.797 84.808,239.693 84.658,239.693 84.750 M220.547 85.601 C 220.445 86.049,220.387 86.443,220.419 86.475 C 220.512 86.568,220.860 85.162,220.793 84.963 C 220.761 84.865,220.650 85.152,220.547 85.601 M232.523 85.083 C 232.524 85.267,232.631 85.679,232.761 86.000 L 232.997 86.583 232.894 86.000 C 232.837 85.679,232.730 85.267,232.656 85.083 L 232.521 84.750 232.523 85.083 M130.845 85.929 C 130.731 86.440,130.669 86.891,130.708 86.931 C 130.748 86.970,130.874 86.583,130.988 86.071 C 131.103 85.560,131.164 85.109,131.125 85.069 C 131.086 85.030,130.960 85.417,130.845 85.929 M213.333 86.000 C 213.230 86.385,213.177 86.733,213.217 86.773 C 213.257 86.813,213.371 86.526,213.470 86.136 C 213.569 85.746,213.621 85.399,213.586 85.364 C 213.551 85.328,213.437 85.615,213.333 86.000 M123.583 86.500 C 123.520 86.788,123.503 87.059,123.545 87.101 C 123.588 87.143,123.671 86.939,123.729 86.646 C 123.788 86.353,123.805 86.083,123.767 86.045 C 123.729 86.007,123.647 86.212,123.583 86.500 M114.750 86.754 C 114.383 86.980,114.149 87.165,114.230 87.166 C 114.401 87.167,115.500 86.507,115.500 86.403 C 115.500 86.297,115.467 86.313,114.750 86.754 M173.712 87.000 C 173.712 87.412,173.745 87.581,173.784 87.375 C 173.824 87.169,173.824 86.831,173.784 86.625 C 173.745 86.419,173.712 86.587,173.712 87.000 M150.705 87.333 C 150.705 87.654,150.740 87.785,150.782 87.625 C 150.823 87.465,150.823 87.202,150.782 87.042 C 150.740 86.881,150.705 87.013,150.705 87.333 M75.667 88.292 C 74.760 89.218,74.694 89.320,75.262 88.919 C 75.793 88.544,77.042 87.131,76.802 87.177 C 76.774 87.182,76.262 87.684,75.667 88.292 M112.333 87.750 C 112.013 87.874,111.862 87.977,112.000 87.980 C 112.138 87.983,112.475 87.882,112.750 87.756 C 113.394 87.461,113.094 87.457,112.333 87.750 M202.750 87.771 L 202.250 88.014 202.750 87.912 C 203.025 87.856,203.321 87.740,203.408 87.655 C 203.638 87.430,203.341 87.483,202.750 87.771 M32.590 87.847 C 32.720 88.153,34.567 89.689,35.375 90.165 C 36.363 90.746,36.102 90.395,35.043 89.717 C 34.517 89.381,33.727 88.769,33.288 88.358 C 32.849 87.947,32.534 87.717,32.590 87.847 M130.175 87.907 C 130.065 88.039,129.812 88.178,129.613 88.217 C 129.260 88.286,129.260 88.289,129.599 88.311 C 129.791 88.323,130.084 88.183,130.250 88.000 C 130.416 87.817,130.512 87.667,130.463 87.667 C 130.414 87.667,130.285 87.775,130.175 87.907 M192.167 87.917 C 192.487 88.040,192.900 88.142,193.083 88.143 C 193.267 88.144,193.079 88.038,192.667 87.908 C 191.725 87.611,191.389 87.617,192.167 87.917 M143.907 88.071 C 144.085 88.215,144.385 88.327,144.574 88.319 C 144.849 88.308,144.829 88.278,144.471 88.170 C 144.226 88.096,143.926 87.985,143.805 87.922 C 143.683 87.860,143.729 87.927,143.907 88.071 M173.979 88.042 C 174.105 88.202,174.367 88.325,174.562 88.314 C 174.899 88.296,174.900 88.291,174.583 88.213 C 174.400 88.168,174.137 88.045,174.000 87.940 C 173.783 87.775,173.780 87.788,173.979 88.042 M239.872 88.075 C 239.333 88.373,239.246 88.492,239.645 88.387 C 239.834 88.338,240.076 88.193,240.182 88.065 C 240.406 87.795,240.378 87.795,239.872 88.075 M109.044 88.286 C 109.297 88.325,109.672 88.324,109.877 88.284 C 110.082 88.244,109.875 88.213,109.417 88.214 C 108.958 88.216,108.791 88.248,109.044 88.286 M73.086 90.259 C 72.630 90.575,72.313 90.833,72.381 90.833 C 72.567 90.833,73.788 90.041,73.912 89.840 C 74.066 89.592,74.010 89.620,73.086 90.259 M36.806 91.044 C 37.124 91.391,37.833 91.767,37.833 91.590 C 37.833 91.565,37.515 91.336,37.125 91.082 L 36.417 90.620 36.806 91.044 M71.643 91.176 C 71.271 91.501,71.269 91.510,71.616 91.342 C 71.817 91.245,72.028 91.090,72.084 90.999 C 72.248 90.734,72.068 90.806,71.643 91.176 M38.000 91.718 C 38.000 91.767,38.429 92.076,38.953 92.404 C 39.477 92.732,39.839 93.000,39.756 93.000 C 39.673 93.000,40.039 93.221,40.568 93.492 C 41.097 93.763,41.638 94.073,41.769 94.183 C 41.901 94.292,42.041 94.348,42.082 94.307 C 42.123 94.266,41.390 93.756,40.453 93.173 C 39.516 92.590,38.581 92.004,38.375 91.871 C 38.169 91.737,38.000 91.669,38.000 91.718 M68.867 92.861 C 68.106 93.326,67.524 93.746,67.572 93.794 C 67.621 93.843,67.981 93.671,68.372 93.413 C 68.763 93.154,69.365 92.758,69.708 92.532 C 70.052 92.306,70.333 92.094,70.333 92.061 C 70.333 91.966,70.329 91.968,68.867 92.861 M106.665 94.549 L 106.746 95.750 106.798 94.684 C 106.827 94.097,106.790 93.557,106.717 93.483 C 106.643 93.409,106.620 93.889,106.665 94.549 M125.998 94.549 L 126.080 95.750 126.132 94.684 C 126.160 94.097,126.124 93.557,126.050 93.483 C 125.977 93.409,125.953 93.889,125.998 94.549 M128.569 93.560 C 128.521 93.685,128.506 94.229,128.535 94.769 L 128.588 95.750 128.669 94.541 C 128.750 93.328,128.731 93.139,128.569 93.560 M219.333 93.497 C 260.904 93.564,295.929 93.629,297.167 93.642 L 299.417 93.667 299.465 94.420 C 299.512 95.149,299.496 95.176,298.965 95.294 C 298.602 95.375,299.231 95.447,300.833 95.507 C 302.162 95.557,291.813 95.622,277.833 95.652 C 263.854 95.683,251.104 95.754,249.500 95.812 C 246.045 95.936,303.047 95.875,327.958 95.728 L 345.333 95.626 345.333 95.063 C 345.333 94.518,345.312 94.500,344.673 94.500 C 344.063 94.500,343.495 94.061,343.760 93.795 C 343.999 93.557,325.609 93.494,238.833 93.438 L 143.750 93.377 219.333 93.497 M65.833 94.680 C 64.537 95.461,64.608 95.540,65.955 94.815 C 67.023 94.240,67.086 94.197,66.986 94.097 C 66.948 94.059,66.429 94.321,65.833 94.680 M42.398 94.471 C 42.467 94.581,42.836 94.829,43.220 95.021 C 44.035 95.429,43.869 95.225,42.929 94.662 C 42.569 94.446,42.330 94.360,42.398 94.471 M44.167 95.494 C 44.557 95.785,46.000 96.515,46.000 96.422 C 46.000 96.376,45.606 96.132,45.125 95.879 C 44.127 95.354,43.804 95.224,44.167 95.494 M62.804 96.302 C 61.825 96.821,61.050 97.272,61.082 97.304 C 61.151 97.373,64.348 95.713,64.575 95.489 C 64.829 95.239,64.678 95.308,62.804 96.302 M94.977 95.877 C 95.047 95.947,97.725 95.985,100.927 95.960 L 106.750 95.916 100.800 95.833 C 97.527 95.787,94.907 95.807,94.977 95.877 M113.458 95.958 C 115.773 95.984,119.560 95.984,121.875 95.958 C 124.190 95.932,122.296 95.911,117.667 95.911 C 113.037 95.911,111.144 95.932,113.458 95.958 M155.889 95.958 C 170.906 95.982,195.431 95.982,210.389 95.958 C 225.346 95.935,213.058 95.916,183.083 95.916 C 153.108 95.916,140.871 95.935,155.889 95.958 M47.083 97.086 C 47.633 97.403,48.158 97.663,48.250 97.663 C 48.342 97.663,47.947 97.401,47.372 97.081 C 46.798 96.762,46.273 96.502,46.205 96.505 C 46.138 96.508,46.533 96.769,47.083 97.086 M59.250 98.016 C 58.700 98.286,58.400 98.460,58.583 98.403 C 59.636 98.072,60.344 97.784,60.426 97.651 C 60.574 97.412,60.322 97.490,59.250 98.016 M48.500 97.759 C 48.500 97.860,49.580 98.337,49.786 98.326 C 49.939 98.318,48.810 97.684,48.625 97.674 C 48.556 97.670,48.500 97.708,48.500 97.759 M57.311 98.745 C 57.267 98.788,56.824 98.940,56.324 99.082 C 55.703 99.259,55.601 99.318,56.001 99.271 C 56.590 99.200,57.905 98.706,57.569 98.680 C 57.470 98.673,57.354 98.702,57.311 98.745 M51.917 99.089 C 52.192 99.215,52.567 99.317,52.750 99.315 C 52.933 99.313,52.746 99.205,52.333 99.075 C 51.408 98.783,51.259 98.788,51.917 99.089 M53.621 99.454 C 53.917 99.490,54.442 99.491,54.788 99.455 C 55.134 99.419,54.892 99.389,54.250 99.388 C 53.608 99.387,53.325 99.417,53.621 99.454 " stroke="none" fill="#cae9f6" fill-rule="evenodd"></path></g></svg>