<svg xmlns="http://www.w3.org/2000/svg" width="24" height="24" viewBox="0 0 24 24">
  <g fill="none" fill-rule="evenodd">
    <rect width="24" height="24" fill="#FFF" fill-opacity=".01"/>
    <path fill="#758A9A" fill-rule="nonzero" d="M23.25,7.92 L12.618,0.864 C12.24,0.612 11.754,0.612 11.376,0.864 L0.75,7.92 L1.992,9.786 L4.164,8.346 L4.164,23.082 L19.848,23.082 L19.848,8.346 L22.02,9.786 L23.25,7.92 Z M17.598,20.844 L6.402,20.844 L6.402,6.864 L12,3.144 L17.598,6.864 L17.598,20.844 Z"/>
    <path fill="#29ABE2" fill-rule="nonzero" d="M10.878,6.276 L10.878,7.602 C9.576,8.064 8.634,9.3 8.634,10.758 C8.634,12.612 10.14,14.118 11.994,14.118 C12.612,14.118 13.116,14.622 13.116,15.24 C13.116,15.858 12.612,16.362 11.994,16.362 C11.376,16.362 10.872,15.858 10.872,15.24 L8.64,15.24 C8.64,16.698 9.582,17.934 10.884,18.396 L10.884,19.722 L13.122,19.722 L13.122,18.396 C14.424,17.934 15.36,16.698 15.36,15.24 C15.36,13.386 13.854,11.88 12,11.88 C11.382,11.88 10.878,11.376 10.878,10.758 C10.878,10.14 11.382,9.636 12,9.636 C12.618,9.636 13.122,10.14 13.122,10.758 L15.36,10.758 C15.36,9.3 14.424,8.07 13.122,7.602 L13.122,6.276 L10.878,6.276 Z"/>
  </g>
</svg>
