<svg xmlns="http://www.w3.org/2000/svg" width="24" height="24" viewBox="0 0 24 24">
  <g fill="none" fill-rule="evenodd">
    <rect width="24" height="24" fill="#FFF" fill-opacity=".01"/>
    <path fill="#758A9A" fill-rule="nonzero" d="M9.0106383,10.9946809 C11.212766,10.9946809 13,9.20744681 13,7.00531915 C13,4.80319149 11.212766,3.01595745 9.0106383,3.01595745 C6.80851064,3.01595745 5.0212766,4.80319149 5.0212766,7.00531915 C5.0212766,9.20744681 6.80851064,10.9946809 9.0106383,10.9946809 Z M9.0106383,5.0106383 C10.1117021,5.0106383 11.0053191,5.90425532 11.0053191,7.00531915 C11.0053191,8.10638298 10.1117021,9 9.0106383,9 C7.90957447,9 7.01595745,8.10638298 7.01595745,7.00531915 C7.01595745,5.90425532 7.90957447,5.0106383 9.0106383,5.0106383 Z"/>
    <path fill="#29ABE2" fill-rule="nonzero" d="M16.9893617,14.9840426 C16.212766,14.9840426 15.4734043,15.1808511 14.7978723,15.5159574 C13.5425532,13.3882979 11.4148936,11.9893617 9.0106383,11.9893617 C5.15957447,11.9893617 2.02659574,15.5691489 2.02659574,19.9680851 L2.02659574,20.9680851 L21.9734043,20.9680851 L21.9734043,19.9680851 C21.9734043,17.2180851 19.7340426,14.9840426 16.9893617,14.9840426 Z M4.09042553,18.9734043 C4.4893617,16.1489362 6.54255319,13.9840426 9.0106383,13.9840426 C11.4787234,13.9840426 13.5319149,16.143617 13.9308511,18.9734043 L4.09042553,18.9734043 Z M15.9308511,18.9734043 C15.8670213,18.4095745 15.7553191,17.8670213 15.5957447,17.3457447 C16.0212766,17.1170213 16.4946809,16.9787234 16.9893617,16.9787234 C18.287234,16.9787234 19.3989362,17.8138298 19.8085106,18.9734043 L15.9308511,18.9734043 Z"/>
    <path fill="#758A9A" fill-rule="nonzero" d="M16.9893617,13.9840426 C18.6382979,13.9840426 19.9840426,12.643617 19.9840426,10.9893617 C19.9840426,9.33510638 18.6382979,8 16.9893617,8 C15.3404255,8 13.9946809,9.34042553 13.9946809,10.9946809 C13.9946809,12.6489362 15.3351064,13.9840426 16.9893617,13.9840426 Z M16.9893617,9.99468085 C17.537234,9.99468085 17.9893617,10.4414894 17.9893617,10.9946809 C17.9893617,11.5478723 17.5425532,11.9946809 16.9893617,11.9946809 C16.4414894,11.9946809 15.9893617,11.5478723 15.9893617,10.9946809 C15.9893617,10.4414894 16.4361702,9.99468085 16.9893617,9.99468085 Z"/>
  </g>
</svg>
