<svg xmlns="http://www.w3.org/2000/svg" width="24" height="24" viewBox="0 0 24 24">
  <g fill="none" fill-rule="evenodd">
    <rect width="24" height="24" fill="#FFF" fill-opacity=".01"/>
    <path fill="#758A9A" fill-rule="nonzero" d="M12,10 C14.2,10 16,8.2 16,6 C16,3.8 14.2,2 12,2 C9.8,2 8,3.8 8,6 C8,8.2 9.8,10 12,10 Z M12,4 C13.1,4 14,4.9 14,6 C14,7.1 13.1,8 12,8 C10.9,8 10,7.1 10,6 C10,4.9 10.9,4 12,4 Z"/>
    <path fill="#29ABE2" fill-rule="nonzero" d="M12,12 C7,12 3,16 3,21 C3,21.6 3.4,22 4,22 L20,22 C20.6,22 21,21.6 21,21 C21,16 17,12 12,12 Z M5.1,20 C5.5,16.9 8,14.5 11,14.1 L11,17 C11,17.6 11.4,18 12,18 C12.6,18 13,17.6 13,17 L13,14.1 C16.1,14.5 18.5,17 18.9,20 L5.1,20 Z"/>
  </g>
</svg>
