<svg xmlns="http://www.w3.org/2000/svg" width="24" height="24" viewBox="0 0 24 24">
  <g fill="none" fill-rule="evenodd">
    <rect width="24" height="24" fill="#FFF" fill-opacity=".01"/>
    <path fill="#758A9A" fill-rule="nonzero" d="M18,8 L18,4.99733333 L16,4.99733333 L16,8 L14,8 L14,2 L2,2 L2,22 L12,22 L14,22 L22,22 L22,8 L18,8 Z M12,20 L4,20 L4,4 L12,4 L12,8 L12,20 Z M20,20 L14,20 L14,10 L20,10 L20,20 Z"/>
    <rect width="4" height="2" x="6" y="6" fill="#758A9A" fill-rule="nonzero"/>
    <rect width="4" height="2" x="6" y="11" fill="#758A9A" fill-rule="nonzero"/>
    <rect width="4" height="2" x="6" y="16" fill="#758A9A" fill-rule="nonzero"/>
    <rect width="2" height="2" x="16" y="16" fill="#758A9A" fill-rule="nonzero"/>
    <rect width="2" height="2" x="16" y="12" fill="#758A9A" fill-rule="nonzero"/>
  </g>
</svg>
