<svg xmlns="http://www.w3.org/2000/svg" width="24" height="24" viewBox="0 0 24 24">
  <g fill="none" fill-rule="evenodd">
    <rect width="24" height="24" fill="#FFF" fill-opacity=".01"/>
    <path fill="#758A9A" fill-rule="nonzero" d="M17.5617021,2.42553191 L17.5617021,0.0319148936 L15.1680851,0.0319148936 L15.1680851,2.42553191 L12.7744681,2.42553191 L12.7744681,0.0319148936 L10.3808511,0.0319148936 L10.3808511,2.42553191 L7.98723404,2.42553191 L7.98723404,0.0319148936 L5.59361702,0.0319148936 L5.59361702,2.42553191 L2,2.42553191 L2,23.9680851 L21.1489362,23.9680851 L21.1489362,2.42553191 L17.5617021,2.42553191 Z M18.7553191,21.5744681 L4.39361702,21.5744681 L4.39361702,4.81914894 L18.7553191,4.81914894 L18.7553191,21.5744681 Z"/>
    <rect width="9.574" height="2.394" x="6.787" y="16.787" fill="#758A9A" fill-rule="nonzero"/>
    <rect width="9.574" height="2.394" x="6.787" y="12" fill="#758A9A" fill-rule="nonzero"/>
    <rect width="4.787" height="2.394" x="6.787" y="7.213" fill="#758A9A" fill-rule="nonzero"/>
  </g>
</svg>
