<svg xmlns="http://www.w3.org/2000/svg" width="24" height="24" viewBox="0 0 24 24">
  <g fill="none" fill-rule="evenodd">
    <rect width="24" height="24" fill="#FFF" fill-opacity=".01"/>
    <path fill="#758A9A" fill-rule="nonzero" d="M12 10C14.2 10 16 8.2 16 6 16 3.8 14.2 2 12 2 9.8 2 8 3.8 8 6 8 8.2 9.8 10 12 10zM12 4C13.1 4 14 4.9 14 6 14 7.1 13.1 8 12 8 10.9 8 10 7.1 10 6 10 4.9 10.9 4 12 4zM12 12C7 12 3 16 3 21 3 21.6 3.4 22 4 22L20 22C20.6 22 21 21.6 21 21 21 16 17 12 12 12zM5.1 20C5.5 16.9 8 14.5 11 14.1L11 17C11 17.6 11.4 18 12 18 12.6 18 13 17.6 13 17L13 14.1C16.1 14.5 18.5 17 18.9 20L5.1 20z"/>
  </g>
</svg>
