<svg xmlns="http://www.w3.org/2000/svg" width="24" height="24" viewBox="0 0 24 24">
  <g fill="none" fill-rule="evenodd">
    <rect width="24" height="24" fill="#FFF" fill-opacity=".01"/>
    <path fill="#29ABE2" fill-rule="nonzero" d="M20,7 L16.9,7 C16.4,4.7 14.4,3 12,3 C9.6,3 7.6,4.7 7.1,7 L4,7 C2.9,7 2,7.9 2,9 L2,19 C2,20.1 2.9,21 4,21 L20,21 C21.1,21 22,20.1 22,19 L22,9 C22,7.9 21.1,7 20,7 Z M12,5 C13.3,5 14.4,5.8 14.8,7 L9.2,7 C9.6,5.8 10.7,5 12,5 Z M20,9 L20,12 L4,12 L4,9 L20,9 Z M4,19 L4,14 L7,14 L7,16 L9,16 L9,14 L15,14 L15,16 L17,16 L17,14 L20,14 L20,19 L4,19 Z"/>
    <path fill="#758A9A" fill-rule="nonzero" d="M20,7 L16.9,7 C16.4,4.7 14.4,3 12,3 C9.6,3 7.6,4.7 7.1,7 L4,7 C2.9,7 2,7.9 2,9 L2,19 C2,20.1 2.9,21 4,21 L20,21 C21.1,21 22,20.1 22,19 L22,9 C22,7.9 21.1,7 20,7 Z M12,5 C13.3,5 14.4,5.8 14.8,7 L9.2,7 C9.6,5.8 10.7,5 12,5 Z M22,9 L22,12 L2,12 L2,9 C2,7.8954305 2.8954305,7 4,7 L20,7 C21.1045695,7 22,7.8954305 22,9 Z M2,14 L6.99499512,14 L6.9810791,16 L9.04321289,16 L9.04321289,14 L15.0576172,14 L15.0576172,16 L17.0268555,16 L17.0268555,14 L22,14 L22,19 C22,20.1045695 21.1045695,21 20,21 L4,21 C2.8954305,21 2,20.1045695 2,19 L2,14 Z"/>
  </g>
</svg>
