<svg xmlns="http://www.w3.org/2000/svg" width="20" height="20" viewBox="0 0 20 20">
  <g fill="none" fill-rule="evenodd">
    <rect width="20" height="20" fill="#FFF" fill-opacity=".01"/>
    <path fill="#758A9A" fill-rule="nonzero" d="M10 8.125C12.07 8.125 13.75 6.445 13.75 4.375 13.75 2.305 12.07.625 10 .625 7.93.625 6.25 2.305 6.25 4.375 6.25 6.445 7.93 8.125 10 8.125zM10 2.5C11.035 2.5 11.875 3.34 11.875 4.375 11.875 5.41 11.035 6.25 10 6.25 8.965 6.25 8.125 5.41 8.125 4.375 8.125 3.34 8.965 2.5 10 2.5zM10 9.065C5.865 9.065 2.5 12.43 2.5 16.565L2.5 19.38 17.5 19.38 17.5 16.565C17.5 12.425 14.135 9.065 10 9.065zM15.625 17.5L4.375 17.5 4.375 16.56C4.375 13.46 6.9 10.935 10 10.935 13.1 10.935 15.625 13.46 15.625 16.56L15.625 17.5z"/>
  </g>
</svg>
