<svg xmlns="http://www.w3.org/2000/svg" width="20" height="20" viewBox="0 0 20 20">
  <g fill="none" fill-rule="evenodd">
    <rect width="20" height="20" fill="#FFF" fill-opacity=".01"/>
    <path fill="#758A9A" fill-rule="nonzero" d="M7.19 9.065C9.26 9.065 10.94 7.385 10.94 5.315 10.94 3.245 9.26 1.565 7.19 1.565 5.12 1.565 3.44 3.245 3.44 5.315 3.44 7.385 5.12 9.065 7.19 9.065zM7.19 3.44C8.225 3.44 9.065 4.28 9.065 5.315 9.065 6.35 8.225 7.19 7.19 7.19 6.155 7.19 5.315 6.35 5.315 5.315 5.315 4.28 6.155 3.44 7.19 3.44zM14.69 12.815C13.96 12.815 13.265 13 12.63 13.315 11.45 11.315 9.45 10 7.19 10 3.57 10 .625 13.365.625 17.5L.625 18.44 19.375 18.44 19.375 17.5C19.375 14.915 17.27 12.815 14.69 12.815zM2.565 16.565C2.94 13.91 4.87 11.875 7.19 11.875 9.51 11.875 11.44 13.905 11.815 16.565L2.565 16.565zM13.695 16.565C13.635 16.035 13.53 15.525 13.38 15.035 13.78 14.82 14.225 14.69 14.69 14.69 15.91 14.69 16.955 15.475 17.34 16.565L13.695 16.565zM14.69 11.875C16.24 11.875 17.505 10.615 17.505 9.06 17.505 7.505 16.24 6.25 14.69 6.25 13.14 6.25 11.875 7.51 11.875 9.065 11.875 10.62 13.135 11.875 14.69 11.875zM14.69 8.125C15.205 8.125 15.63 8.545 15.63 9.065 15.63 9.585 15.21 10.005 14.69 10.005 14.175 10.005 13.75 9.585 13.75 9.065 13.75 8.545 14.17 8.125 14.69 8.125z"/>
  </g>
</svg>
