<svg xmlns="http://www.w3.org/2000/svg" width="20" height="20" viewBox="0 0 20 20">
  <g fill="none" fill-rule="evenodd">
    <rect width="20" height="20" fill="#FFF" fill-opacity=".01"/>
    <path fill="#758A9A" fill-rule="nonzero" d="M10,0.625 C4.83,0.625 0.625,4.83 0.625,10 C0.625,15.17 4.83,19.375 10,19.375 C15.17,19.375 19.375,15.17 19.375,10 C19.375,4.83 15.17,0.625 10,0.625 Z M10,17.5 C5.865,17.5 2.5,14.135 2.5,10 C2.5,5.865 5.865,2.5 10,2.5 C14.135,2.5 17.5,5.865 17.5,10 C17.5,14.135 14.135,17.5 10,17.5 Z"/>
    <path fill="#758A9A" fill-rule="nonzero" d="M10,4.375 C7.93,4.375 6.25,6.055 6.25,8.125 C6.25,8.99 6.555,9.83 7.105,10.495 L6.27,14.495 C6.21,14.77 6.28,15.06 6.46,15.28 C6.64,15.5 6.905,15.625 7.19,15.625 L12.815,15.625 C13.095,15.625 13.365,15.5 13.545,15.28 C13.725,15.06 13.795,14.775 13.735,14.495 L12.9,10.495 C13.45,9.825 13.755,8.99 13.755,8.125 C13.75,6.055 12.07,4.375 10,4.375 Z M10.955,10.4 L11.655,13.75 L8.34,13.75 L9.04,10.4 C9.11,10.075 8.995,9.735 8.75,9.51 C8.345,9.145 8.12,8.655 8.12,8.125 C8.12,7.09 8.96,6.25 9.995,6.25 C11.03,6.25 11.87,7.09 11.87,8.125 C11.87,8.655 11.645,9.145 11.24,9.51 C11,9.735 10.89,10.075 10.955,10.4 Z"/>
  </g>
</svg>
