<svg xmlns="http://www.w3.org/2000/svg" width="116" height="116" viewBox="0 0 116 116">
  <g fill="none" fill-rule="evenodd">
    <rect width="115.2" height="115.2" fill="#FFF" fill-opacity=".01"/>
    <g fill="#758A9A" fill-rule="nonzero" transform="translate(20 3)">
      <path d="M41.14864 109.84384C39.82192 109.84384 38.74864 108.77056 38.74864 107.44384L38.75344 67.62832C38.75344 66.3016 39.82672 65.22832 41.15344 65.22832 42.48016 65.22832 43.55344 66.3016 43.55344 67.62832L43.54864 107.44384C43.54864 108.77008 42.47488 109.84384 41.14864 109.84384zM41.15296 20.41552C35.80432 20.41552 32.25616 13.6984 32.25616 9.25456 32.25616 4.28128 36.24544.23584 41.15296.23584 46.05616.23584 50.04496 4.28128 50.04496 9.25456 50.04544 13.6984 46.4968 20.41552 41.15296 20.41552zM41.15296 5.03584C38.8936 5.03584 37.05616 6.92704 37.05616 9.25456 37.05616 12.04816 39.35296 15.61552 41.15296 15.61552 42.94816 15.61552 45.24496 12.04816 45.24496 9.25456 45.24544 6.92752 43.408 5.03584 41.15296 5.03584z"/>
      <path d="M49.55296,109.84384 C49.51072,109.84384 49.46848,109.84384 49.42192,109.83904 C48.1,109.76896 47.08288,108.63424 47.15776,107.31232 L49.72672,60.23104 C49.75936,59.584 50.16736,58.73584 50.65936,58.30912 C51.33424,57.72304 52.12672,57.5824 52.86256,57.5824 C53.6032,35.15968 52.44064,28.30672 51.87328,26.34496 C51.43264,26.32864 50.8936,26.30752 50.40592,26.2864 L49.02304,26.22304 C48.85024,26.2 48.66736,26.404 48.52672,26.67328 C47.21872,29.26528 44.39248,30.88048 41.15344,30.88048 C37.9096,30.88048 35.08336,29.26576 33.77056,26.66896 C33.63472,26.3992 33.46096,26.26096 33.27856,26.22352 C32.13952,26.35024 12.36784,29.5984 5.716,30.72352 L30.40528,32.94784 C31.63792,33.06496 32.58016,34.0984 32.58016,35.33824 L32.58016,60.36256 L35.14432,107.31232 C35.2192,108.63424 34.20208,109.76848 32.88016,109.83904 C31.45984,110.03584 30.4288,108.8968 30.35344,107.57488 L27.78448,60.4936 L27.77968,37.52464 L5.26576,35.42464 C2.87968,35.19952 1.07968,33.2752 0.99088,30.84976 C0.9016,28.3912 2.5192,26.392 4.9192,25.9888 C9.13792,25.27648 31.95184,21.50032 32.96944,21.43264 C35.0368,21.26848 37.0336,22.47568 38.05552,24.50512 C39.2272,26.82544 43.07584,26.83696 44.24752,24.50272 C45.27856,22.4728 47.2336,21.30112 49.324,21.43264 L50.608,21.4912 C53.09248,21.5944 53.6032,21.63424 54.04864,21.76096 C54.38128,21.85696 54.69088,22.02832 54.95344,22.25296 C56.0176,23.16448 58.84384,25.5856 57.58768,59.83744 C57.55936,60.4984 57.16576,61.33744 56.66416,61.77328 C55.97056,62.37328 55.15024,62.5 54.4096,62.4952 L51.94864,107.57488 C51.87808,108.85456 50.81872,109.84384 49.55296,109.84384 Z"/>
    </g>
  </g>
</svg>
